<?xml version="1.0" encoding="UTF-8"?>
<svg id="_レイヤー_2" data-name="レイヤー_2" xmlns="http://www.w3.org/2000/svg" viewBox="0 0 800 642">
  <defs>
    <style>
      .cls-1 {
        fill: none;
      }

      .cls-2 {
        fill: #5c5c5c;
      }

      .cls-3 {
        fill: #f0f0f0;
      }
    </style>
  </defs>
  <g id="CDケース">
    <path class="cls-2" d="M711,10v622H89V10h622M721,0H79v642h642V0h0Z"/>
    <rect class="cls-2" x="721" width="79" height="642"/>
    <rect class="cls-1" width="79" height="642"/>
    <g>
      <path class="cls-3" d="M742.52,434.72c-3.24,0-5.88-2.64-5.88-5.88s2.64-5.88,5.88-5.88,5.88,2.64,5.88,5.88-2.64,5.88-5.88,5.88ZM742.52,423.51c-2.95,0-5.33,2.38-5.33,5.33s2.38,5.33,5.33,5.33,5.33-2.38,5.33-5.33-2.38-5.33-5.33-5.33ZM744.06,430.88c1.03-.31,1.51-.94,1.51-1.97,0-1.49-1.15-2.38-3.02-2.38s-3.07.94-3.07,2.4c0,1.13.58,1.82,1.73,2.02l-.24,1.34c-.72-.19-1.08-.36-1.46-.67-.72-.58-1.13-1.54-1.13-2.74,0-2.26,1.56-3.65,4.13-3.65s4.18,1.44,4.18,3.67c0,1.68-.77,2.78-2.3,3.26l-.31-1.3Z"/>
      <path class="cls-3" d="M733.4,439.73c0-1.51-.02-1.87-.12-2.64,1.9.26,2.26.34,3.17.7,1.51.6,2.83,1.61,4.13,3.12.72.84.74.89,2.64,3.67,1.61,2.38,2.66,3.17,4.13,3.17,1.82,0,3-1.54,3-3.98,0-1.58-.53-2.76-1.56-3.48-.65-.46-1.22-.67-2.42-.84l.34-2.02c1.73.36,2.57.72,3.46,1.51,1.22,1.08,1.85,2.71,1.85,4.82,0,3.62-1.82,5.95-4.66,5.95-1.22,0-2.38-.48-3.41-1.42-.82-.72-1.27-1.34-3.1-4.08-1.27-1.9-1.94-2.66-2.95-3.46-.98-.74-1.63-1.08-2.78-1.37v7.66c0,1.2.05,2.02.17,2.93h-2.02c.1-.96.14-1.75.14-2.95v-7.3Z"/>
      <path class="cls-3" d="M734.75,454.92c.65-.65,1.39-1.15,2.21-1.44,1.68-.6,3.58-.91,5.54-.91,2.54,0,5.14.55,6.53,1.39,1.94,1.15,2.95,3,2.95,5.38,0,1.78-.58,3.31-1.7,4.39-.67.67-1.42,1.15-2.21,1.44-1.66.6-3.58.91-5.57.91-2.9,0-5.47-.62-6.94-1.68-1.68-1.2-2.52-2.88-2.52-5.09,0-1.78.58-3.26,1.7-4.39ZM749.1,456.32c-.55-.5-1.15-.89-1.75-1.08-1.46-.5-3.1-.74-4.85-.74-2.23,0-4.58.48-5.71,1.13-1.39.84-2.09,2.09-2.09,3.72,0,1.2.38,2.23,1.13,2.95.55.53,1.18.91,1.87,1.13,1.49.51,3.07.74,4.85.74,2.09,0,4.46-.46,5.59-1.08,1.44-.79,2.18-2.09,2.18-3.77,0-1.25-.41-2.23-1.22-3Z"/>
      <path class="cls-3" d="M733.4,471.27c0-1.51-.02-1.87-.12-2.64,1.9.26,2.26.34,3.17.7,1.51.6,2.83,1.61,4.13,3.12.72.84.74.89,2.64,3.67,1.61,2.38,2.66,3.17,4.13,3.17,1.82,0,3-1.54,3-3.98,0-1.58-.53-2.76-1.56-3.48-.65-.46-1.22-.67-2.42-.84l.34-2.02c1.73.36,2.57.72,3.46,1.51,1.22,1.08,1.85,2.71,1.85,4.82,0,3.62-1.82,5.95-4.66,5.95-1.22,0-2.38-.48-3.41-1.42-.82-.72-1.27-1.34-3.1-4.08-1.27-1.9-1.94-2.66-2.95-3.46-.98-.74-1.63-1.08-2.78-1.37v7.66c0,1.2.05,2.02.17,2.93h-2.02c.1-.96.14-1.75.14-2.95v-7.3Z"/>
      <path class="cls-3" d="M744.68,487.2q-.43-.05-1.08-.19c1.1,1.15,1.66,2.54,1.66,4.2,0,1.75-.58,3.24-1.63,4.32-1.03,1.08-2.45,1.61-4.22,1.61-3.86,0-6.34-2.52-6.34-6.48,0-1.87.55-3.43,1.63-4.58.6-.6,1.1-.94,2.26-1.51l.58,1.97c-.67.24-.98.41-1.39.77-.91.82-1.42,2.02-1.42,3.41,0,2.69,1.82,4.49,4.58,4.49s4.37-1.66,4.37-4.2c0-1.22-.34-2.28-1.01-3.14-.46-.58-.79-.84-1.44-1.1l.17-1.8c.94.19,1.44.26,2.47.36l5.42.53c.7.05.98.07,1.44.07.34,0,.43,0,1.03-.05-.1.74-.12,1.13-.12,2.54v4.94c0,1.3.05,1.85.19,2.81h-2.04c.14-.91.19-1.68.19-2.81v-5.64l-5.3-.5Z"/>
      <path class="cls-3" d="M733.4,521.93c.86-.19,1.71-.46,2.45-.74l3.1-1.25v-8.38l-3.1-1.25c-.91-.36-1.61-.58-2.45-.74v-2.5c.79.48,1.15.65,2.76,1.3l13.25,5.38c1.13.46,1.68.65,2.23.77v2.42c-.46.1-.77.22-2.23.82l-13.25,5.38c-1.44.6-2.14.91-2.76,1.27v-2.47ZM748.52,516.27c.19-.07.22-.07,1.54-.53-.36-.12-.62-.22-.79-.27-.38-.14-.65-.21-.74-.26l-7.92-3.07v7.22l7.92-3.1Z"/>
      <path class="cls-3" d="M751.64,528.87c-.79-.14-1.68-.22-2.69-.22h-12.87c-1.06,0-1.87.07-2.69.22v-2.28c.89.14,1.49.19,2.69.19h12.87c1.2,0,1.82-.05,2.69-.19v2.28Z"/>
      <path class="cls-3" d="M733.4,544.71c.72-.07,1.71-.41,4.1-1.42,3.29-1.39,4.22-2.33,4.22-4.25v-4.44h-5.62c-1.22,0-1.85.05-2.71.19v-2.23c.86.14,1.51.19,2.69.19h12.87c1.03,0,1.8-.05,2.76-.19-.05.84-.07,1.51-.07,2.62v5.28c0,3.48-1.63,5.4-4.61,5.4-1.54,0-2.69-.46-3.53-1.44-.62-.7-.91-1.3-1.2-2.59-.29.98-.94,1.58-2.64,2.45-1.13.58-2.38,1.15-4.03,1.9-.94.41-1.66.74-2.23,1.08v-2.54ZM743.39,540.29c0,1.08.38,2.06,1.03,2.71.6.62,1.39.91,2.42.91,2.04,0,3.14-1.2,3.14-3.48v-5.83h-6.6v5.69Z"/>
      <path class="cls-3" d="M751.64,552.27c-.79-.14-1.68-.21-2.69-.21h-12.87c-1.06,0-1.87.07-2.69.21v-2.28c.89.14,1.49.19,2.69.19h12.87c1.2,0,1.82-.05,2.69-.19v2.28Z"/>
      <path class="cls-3" d="M736.21,566.04c-1.3,0-1.94.05-2.81.19v-2.28c.82.14,1.56.19,2.81.19h12.77c1.03,0,1.8-.05,2.74-.19-.05.84-.07,1.49-.07,2.64v6.36c0,1.18.05,1.85.17,2.76h-2.04c.12-.79.17-1.49.17-2.76v-6.91h-6.19v5.62c0,1.15.05,1.85.17,2.74h-2.02c.12-.79.17-1.49.17-2.74v-5.62h-5.86Z"/>
      <path class="cls-3" d="M734.96,587.69c.26,0,.43,0,1.06.07-1.97-1.2-2.86-2.69-2.86-4.85,0-1.73.62-3.07,1.78-3.84.7-.43,1.63-.67,2.79-.67h5.93c1.08,0,1.92-.05,2.69-.17v2.16c-.84-.12-1.66-.17-2.71-.17h-5.59c-2.14,0-3.34,1.03-3.34,2.9,0,1.37.6,2.5,1.9,3.46.84.62,1.44.89,2.4,1.1h4.63c1.03,0,1.87-.05,2.71-.17v2.14c-.84-.12-1.61-.17-2.71-.17h-7.51c-1.08,0-1.75.05-2.71.19v-1.99h1.56Z"/>
      <path class="cls-3" d="M746.34,595.9c-.84-.12-1.51-.17-2.71-.17h-11.79c-2.54,0-3.65-1.08-3.65-3.58,0-1.54.46-2.5,1.75-3.58l1.08,1.66c-.91.62-1.25,1.15-1.25,2.02,0,1.22.58,1.66,2.21,1.66h11.64c1.18,0,1.87-.05,2.71-.17v2.16ZM751.64,595.99h-2.16v-2.33h2.16v2.33Z"/>
      <path class="cls-3" d="M746.34,601.66c-.84-.12-1.51-.17-2.71-.17h-7.51c-1.1,0-1.78.05-2.71.17v-2.16c1.03.12,1.71.17,2.71.17h7.51c1.15,0,1.87-.05,2.71-.17v2.16ZM751.64,601.76h-2.14v-2.33h2.14v2.33Z"/>
      <path class="cls-3" d="M749.91,608.84c-.77-.12-1.63-.17-2.66-.17h-.91v1.15c0,1.11.02,1.61.14,2.45h-1.82c.12-.77.14-1.37.14-2.45v-1.15h-8.35c-.7,0-1.06.1-1.27.31-.26.26-.41.67-.41,1.18,0,.62.14,1.11.62,1.9l-1.68.53c-.41-.98-.55-1.73-.55-2.71,0-1.06.26-1.87.74-2.35.48-.48,1.18-.67,2.3-.67h8.59v-.96c0-.82-.05-1.37-.14-2.16h1.82c-.12.67-.14,1.15-.14,2.16v.96h.91c.96,0,1.87-.05,2.66-.17v2.16Z"/>
      <path class="cls-3" d="M735.11,623.12c-.84-.94-1.15-1.39-1.46-2.21-.31-.82-.48-1.68-.48-2.5,0-2.64,1.37-4.25,3.65-4.25,1.92,0,3.31,1.2,3.94,3.43.41,1.42.55,2.57.62,5.52h1.39c1.63,0,2.47-1.03,2.47-3.02,0-1.32-.34-2.3-1.03-2.98-.34-.31-.67-.5-1.39-.74l.41-1.87c1.1.43,1.61.74,2.14,1.35.91.98,1.37,2.42,1.37,4.22,0,3.17-1.34,4.8-3.94,4.8h-6.75c-1.08,0-1.68.05-2.64.19v-1.95h1.71ZM739.95,623.12c-.07-2.86-.24-4.22-.7-5.3-.5-1.22-1.32-1.82-2.47-1.82-1.32,0-2.16.98-2.16,2.54,0,1.39.67,2.9,1.7,3.84.6.55,1.1.74,2.06.74h1.56Z"/>
    </g>
  </g>
</svg>