<?xml version="1.0" encoding="UTF-8"?>
<svg id="_レイヤー_2" data-name="レイヤー_2" xmlns="http://www.w3.org/2000/svg" viewBox="0 0 2405 147">
  <defs>
    <style>
      .cls-1 {
        fill-rule: evenodd;
      }

      .cls-1, .cls-2 {
        fill: #999;
      }
    </style>
  </defs>
  <g id="_五線譜" data-name="五線譜">
    <rect class="cls-2" width="2405" height="3"/>
    <rect class="cls-2" y="36" width="2405" height="3"/>
    <rect class="cls-2" y="72" width="2405" height="3"/>
    <rect class="cls-2" y="108" width="2405" height="3"/>
    <rect class="cls-2" y="144" width="2405" height="3"/>
    <g>
      <path class="cls-1" d="M34.28,126.93c-.95,0-1.85-.5-2.34-1.31-.72-1.18-.45-2.72.64-3.58,8.83-7.01,20.23-17,25.76-24,11.85-14.99,18.09-28.46,20.24-43.7,2-14.2-1.01-27.94-7.85-35.86-4.2-4.86-9.84-7.45-16.3-7.49h-.19c-8.98,0-16.66,4.39-21.99,12.46,1.53-.43,3.12-.66,4.72-.66,9.53,0,17.28,7.75,17.28,17.28s-7.75,17.28-17.28,17.28c-3.35,0-6.6-.96-9.4-2.78-.06-.04-.13-.08-.2-.13l-.09-.06c-4.9-3.22-8.67-9.27-9.15-14.71-1.08-12.43,5.65-21.93,11.49-27.71C37.14,4.52,47.04.42,57.48.42c.85,0,1.71.03,2.57.08,12.53.77,23.09,6.23,30.53,15.77,7.12,9.12,10.65,21.36,9.96,34.47-1.15,21.61-14.29,40.92-25.19,50.88-8.48,7.75-13.53,11.07-26.5,18.47-2.23,1.27-7.87,4.09-13.43,6.6-.36.16-.74.24-1.13.24"/>
      <path class="cls-1" d="M116.29,30.52c4.26,0,7.71-3.45,7.71-7.71s-3.45-7.71-7.71-7.71-7.71,3.45-7.71,7.71,3.45,7.71,7.71,7.71"/>
      <path class="cls-1" d="M116.21,54.53c-4.26,0-7.71,3.45-7.71,7.71s3.45,7.71,7.71,7.71,7.71-3.45,7.71-7.71-3.45-7.71-7.71-7.71"/>
    </g>
  </g>
</svg>