<?xml version="1.0" encoding="UTF-8"?>
<svg id="_レイヤー_2" data-name="レイヤー_2" xmlns="http://www.w3.org/2000/svg" viewBox="0 0 670.23 193.08">
  <defs>
    <style>
      .cls-1 {
        fill: #f0f0f0;
      }
    </style>
  </defs>
  <g id="_レイヤー_5" data-name="レイヤー_5">
    <g>
      <path class="cls-1" d="M8.52,8.55h-.09c-1.8,0-4.05-2.79-4.05-4.41,0-.54.27-.9.81-.99C20.22.27,21.21.18,27.78.18c15.75,0,22.95,5.58,22.95,14.76,0,10.62-7.2,16.74-18.27,18.99-3.42.72-9.63,1.44-14.13,1.44-.99,0-1.89,0-2.61-.09-.36-.09-.63-.18-.9-.36v18.9c0,4.05.27,8.37.27,10.44,0,.63-.81.9-1.89.9-1.98,0-4.86-.99-4.86-2.52,0-1.44.18-5.4.18-8.91V8.55ZM14.82,31.59c.36-.18.72-.36,1.17-.36,27.72-1.8,28.26-13.32,28.26-15.75,0-6.66-6.12-9.63-16.65-9.63-4.32,0-8.91.72-12.78,1.8v23.94Z"/>
      <path class="cls-1" d="M73.68,20.43c10.26,0,17.46,8.1,17.46,21.69,0,11.52-7.56,23.67-21.51,23.67-12.06,0-18.99-7.74-18.99-20.25,0-10.53,8.19-22.23,10.89-22.23.63,0,1.17.36,1.53.81,2.34-1.8,5.58-3.69,10.62-3.69ZM85.11,42.12c0-9.9-3.78-16.29-11.97-16.29-9.54,0-16.47,10.26-16.47,19.62,0,9.9,4.68,14.85,12.96,14.85,8.73,0,15.48-7.83,15.48-18.18Z"/>
      <path class="cls-1" d="M97.44,31.14c0-1.71-.27-7.56-.27-9.63,0-.63.72-.9,1.8-.9,1.89,0,4.77.99,4.77,2.52,0,1.26-.27,2.61-.27,4.59,2.34-3.96,6.93-7.29,13.14-7.29,5.31,0,10.35,3.33,10.35,5.4,0,1.89-1.71,4.68-3.24,4.68-.45,0-.9-.27-1.26-.9-1.17-2.25-4.32-3.33-6.12-3.33-5.04,0-9.63,3.06-11.7,9.54-1.26,4.05-1.26,8.55-1.26,18.81,0,3.69.45,7.47.45,9.54,0,.63-.72.9-1.8.9-1.89,0-4.77-.99-4.77-2.52,0-1.44.18-6.66.18-7.92v-23.49Z"/>
      <path class="cls-1" d="M137.85,26.01h-.45c-2.61,0-3.69.27-5.49.36h-.09c-1.62,0-2.79-2.34-2.79-3.87,0-.72.27-1.26.99-1.26h7.83v-4.59c0-1.71-.18-7.56-.18-9.63,0-.63.81-.9,1.8-.9,1.89,0,4.68.99,4.68,2.52,0,1.44-.18,5.85-.18,8.01v4.32l2.52-.09c2.16-.09,5.58-.45,6.84-.54h.09c1.53,0,2.88,2.34,2.88,3.87,0,.81-.36,1.35-1.08,1.35-1.26,0-5.4,0-7.74.09l-3.51.09v28.71c0,4.86.63,5.58,3.24,5.58,2.07,0,5.4-1.35,8.37-3.69,1.08-.81,1.89-1.17,2.43-1.17s.9.36.9.99c0,2.25-6.75,9.63-12.51,9.63-6.3,0-8.55-3.78-8.55-11.52v-28.26Z"/>
      <path class="cls-1" d="M171.51,26.1h-1.17c-2.61,0-3.78.27-5.76.36h-.09c-1.44,0-2.88-2.34-2.88-3.87,0-.72.36-1.26,1.08-1.26h6.66l2.16-.09v-10.08c0-6.93,5.31-10.71,10.62-10.71,6.57,0,9.9,3.69,9.9,5.58s-1.44,4.14-2.79,4.14c-.45,0-.9-.27-1.35-.99-1.35-2.52-3.96-3.24-5.85-3.24-2.34,0-4.41,1.8-4.41,5.58v9.54l1.89-.09c2.16-.09,6.48-.45,7.74-.54h.09c1.53,0,2.88,2.34,2.88,3.87,0,.81-.36,1.35-1.08,1.35-1.26,0-6.3,0-8.64.09l-2.88.09v28.89c0,3.69.27,7.47.27,9.54,0,.63-.72.9-1.8.9-1.89,0-4.77-.99-4.77-2.52,0-1.44.18-5.76.18-8.91v-27.63Z"/>
      <path class="cls-1" d="M212.46,20.43c10.26,0,17.46,8.1,17.46,21.69,0,11.52-7.56,23.67-21.51,23.67-12.06,0-18.99-7.74-18.99-20.25,0-10.53,8.19-22.23,10.89-22.23.63,0,1.17.36,1.53.81,2.34-1.8,5.58-3.69,10.62-3.69ZM223.88,42.12c0-9.9-3.78-16.29-11.97-16.29-9.54,0-16.47,10.26-16.47,19.62,0,9.9,4.68,14.85,12.96,14.85,8.73,0,15.48-7.83,15.48-18.18Z"/>
      <path class="cls-1" d="M240.09,11.07c0-1.71-.27-7.56-.27-9.63,0-.63.81-.9,1.8-.9,1.98,0,4.86.99,4.86,2.52,0,1.44-.18,5.85-.18,8.01v43.65c0,1.08.27,7.47.27,9.54,0,.63-.81.9-1.8.9-1.98,0-4.86-.99-4.86-2.52,0-1.44.18-6.66.18-7.92V11.07Z"/>
      <path class="cls-1" d="M259.61,11.07c-2.34,0-4.5-2.88-4.5-5.4,0-2.34,1.44-4.32,4.5-4.32,2.16,0,4.41,2.97,4.41,5.58,0,2.25-1.62,4.14-4.41,4.14ZM256.55,31.05c0-1.71-.27-7.56-.27-9.63,0-.54.72-.81,1.71-.81,1.98,0,4.95.99,4.95,2.43s-.18,5.85-.18,8.01v23.67c0,1.08.27,7.47.27,9.54,0,.54-.72.81-1.71.81-1.98,0-4.95-.99-4.95-2.43s.18-6.66.18-7.92v-23.67Z"/>
      <path class="cls-1" d="M295.97,20.43c10.26,0,17.46,8.1,17.46,21.69,0,11.52-7.56,23.67-21.51,23.67-12.06,0-18.99-7.74-18.99-20.25,0-10.53,8.19-22.23,10.89-22.23.63,0,1.17.36,1.53.81,2.34-1.8,5.58-3.69,10.62-3.69ZM307.4,42.12c0-9.9-3.78-16.29-11.97-16.29-9.54,0-16.47,10.26-16.47,19.62,0,9.9,4.68,14.85,12.96,14.85,8.73,0,15.48-7.83,15.48-18.18Z"/>
      <path class="cls-1" d="M371.03,30.87c-8.82-1.98-14.31-6.03-14.31-14.04,0-8.64,9.18-16.83,21.51-16.83,9.99,0,18.99,5.31,18.99,9,0,2.79-1.35,4.68-2.34,4.68-.9,0-1.8-1.08-2.34-1.71-3.24-4.05-9.99-6.3-14.04-6.3-8.73,0-15.39,5.67-15.39,11.34,0,4.05,2.88,6.75,10.35,8.46l9.81,2.52c11.61,3.06,17.1,9.27,17.1,18.9,0,10.53-8.46,18.9-23.31,18.9-10.08,0-17.28-3.42-22.86-9.81-.36-.36-.45-.9-.45-1.44,0-2.07,1.98-4.68,3.51-4.68.45,0,.81.18,1.08.63,5.67,9.27,14.94,9.63,18.81,9.63,8.73,0,16.83-5.49,16.83-12.51,0-7.65-4.23-11.79-12.42-13.95l-10.53-2.79Z"/>
      <path class="cls-1" d="M411.89,11.07c-2.34,0-4.5-2.88-4.5-5.4,0-2.34,1.44-4.32,4.5-4.32,2.16,0,4.41,2.97,4.41,5.58,0,2.25-1.62,4.14-4.41,4.14ZM408.83,31.05c0-1.71-.27-7.56-.27-9.63,0-.54.72-.81,1.71-.81,1.98,0,4.95.99,4.95,2.43s-.18,5.85-.18,8.01v23.67c0,1.08.27,7.47.27,9.54,0,.54-.72.81-1.71.81-1.98,0-4.95-.99-4.95-2.43s.18-6.66.18-7.92v-23.67Z"/>
      <path class="cls-1" d="M430.34,26.01h-.45c-2.61,0-3.69.27-5.49.36h-.09c-1.62,0-2.79-2.34-2.79-3.87,0-.72.27-1.26.99-1.26h7.83v-4.59c0-1.71-.18-7.56-.18-9.63,0-.63.81-.9,1.8-.9,1.89,0,4.68.99,4.68,2.52,0,1.44-.18,5.85-.18,8.01v4.32l2.52-.09c2.16-.09,5.58-.45,6.84-.54h.09c1.53,0,2.88,2.34,2.88,3.87,0,.81-.36,1.35-1.08,1.35-1.26,0-5.4,0-7.74.09l-3.51.09v28.71c0,4.86.63,5.58,3.24,5.58,2.07,0,5.4-1.35,8.37-3.69,1.08-.81,1.89-1.17,2.43-1.17s.9.36.9.99c0,2.25-6.75,9.63-12.51,9.63-6.3,0-8.55-3.78-8.55-11.52v-28.26Z"/>
      <path class="cls-1" d="M462.2,46.53v.9c0,7.83,4.5,13.05,10.53,13.05,7.65,0,14.13-2.43,18.99-7.56.81-.99,1.62-1.35,2.07-1.35.54,0,.9.45.9,1.08,0,2.07-6.93,13.14-21.96,13.14-9.27,0-16.38-7.29-16.38-19.17v-1.26c-1.08-.81-1.89-1.98-1.89-2.88,0-.63.45-1.17,1.71-1.17.09,0,.63-.09.81-.09,1.62-8.64,10.8-20.79,22.5-20.79s14.94,6.66,14.94,13.14-.63,7.65-8.64,10.17c-5.4,1.71-12.96,2.79-22.41,2.79h-1.17ZM464.72,41.49c8.91,0,14.67-1.26,18.63-2.34,4.32-1.26,5.13-2.52,5.13-5.67,0-5.22-2.88-7.83-9.09-7.83-8.82,0-15.12,9.45-16.47,15.84h1.8Z"/>
    </g>
    <g>
      <path class="cls-1" d="M6.6,161.65h-.78c-1.74,0-2.52.18-3.84.24h-.06c-.96,0-1.92-1.56-1.92-2.58,0-.48.24-.84.72-.84h4.44l1.44-.06v-6.72c0-4.62,3.54-7.14,7.08-7.14,4.38,0,6.6,2.46,6.6,3.72s-.96,2.76-1.86,2.76c-.3,0-.6-.18-.9-.66-.9-1.68-2.64-2.16-3.9-2.16-1.56,0-2.94,1.2-2.94,3.72v6.36l1.26-.06c1.44-.06,4.32-.3,5.16-.36h.06c1.02,0,1.92,1.56,1.92,2.58,0,.54-.24.9-.72.9-.84,0-4.2,0-5.76.06l-1.92.06v19.26c0,2.46.18,4.98.18,6.36,0,.42-.48.6-1.2.6-1.26,0-3.18-.66-3.18-1.68,0-.96.12-3.84.12-5.94v-18.42Z"/>
      <path class="cls-1" d="M25.2,175.27v.6c0,5.22,3,8.7,7.02,8.7,5.1,0,9.42-1.62,12.66-5.04.54-.66,1.08-.9,1.38-.9.36,0,.6.3.6.72,0,1.38-4.62,8.76-14.64,8.76-6.18,0-10.92-4.86-10.92-12.78v-.84c-.72-.54-1.26-1.32-1.26-1.92,0-.42.3-.78,1.14-.78.06,0,.42-.06.54-.06,1.08-5.76,7.2-13.86,15-13.86s9.96,4.44,9.96,8.76-.42,5.1-5.76,6.78c-3.6,1.14-8.64,1.86-14.94,1.86h-.78ZM26.88,171.91c5.94,0,9.78-.84,12.42-1.56,2.88-.84,3.42-1.68,3.42-3.78,0-3.48-1.92-5.22-6.06-5.22-5.88,0-10.08,6.3-10.98,10.56h1.2Z"/>
      <path class="cls-1" d="M79.5,159.61c-.54,3.48-.78,12.9-.78,15.84,0,1.74,0,6.24,2.1,9.48.06.12.12.24.12.36,0,.9-1.32,2.52-2.64,2.52-1.86,0-2.94-4.56-3.24-7.86-3,5.64-7.38,8.16-11.88,8.16-5.82,0-9.66-4.02-9.66-11.58,0-10.2,7.44-18.66,14.82-18.66,2.82,0,5.22,1.2,6.6,3.96v-3.3c0-.42.54-.6,1.26-.6,1.38,0,3.3.6,3.3,1.56v.12ZM73.86,164.77c-.18,0-.3-.06-.42-.24-1.38-2.28-3.3-3.18-5.1-3.18-4.92,0-10.74,6.36-10.74,14.88,0,6.06,2.34,8.28,5.52,8.28,5.7,0,11.22-6.06,11.64-14.94.06-1.14.06-3.36.12-5.34-.3.3-.72.54-1.02.54Z"/>
      <path class="cls-1" d="M91.44,161.59h-.3c-1.74,0-2.46.18-3.66.24h-.06c-1.08,0-1.86-1.56-1.86-2.58,0-.48.18-.84.66-.84h5.22v-3.06c0-1.14-.12-5.04-.12-6.42,0-.42.54-.6,1.2-.6,1.26,0,3.12.66,3.12,1.68,0,.96-.12,3.9-.12,5.34v2.88l1.68-.06c1.44-.06,3.72-.3,4.56-.36h.06c1.02,0,1.92,1.56,1.92,2.58,0,.54-.24.9-.72.9-.84,0-3.6,0-5.16.06l-2.34.06v19.14c0,3.24.42,3.72,2.16,3.72,1.38,0,3.6-.9,5.58-2.46.72-.54,1.26-.78,1.62-.78s.6.24.6.66c0,1.5-4.5,6.42-8.34,6.42-4.2,0-5.7-2.52-5.7-7.68v-18.84Z"/>
      <path class="cls-1" d="M117.06,187.87c-1.74,0-3.42-2.1-3.42-4.14,0-1.8,1.5-3.3,3.42-3.3,1.62,0,3.48,2.04,3.48,4.14,0,1.74-1.8,3.3-3.48,3.3Z"/>
      <path class="cls-1" d="M168.48,169.05c0-1.62.54-2.43,1.26-2.43.81,0,1.71.81,2.34,2.25,1.08,2.52,3.6,6.93,6.66,9.45,2.07-1.35,5.22-3.96,6.48-5.31.36-.45,1.26-.9,1.89-.9.54,0,.9.27.9.9,0,1.62-6.21,13.14-9.18,13.14-4.14,0-10.08-11.52-10.35-16.38v-.72ZM188.01,177.78c0-.45.36-.81.99-.81.45,0,1.08.18,1.8.63,2.34,1.44,8.55,2.79,13.05,2.79,3.15,0,6.03-3.06,6.03-6.66,0-9.36-13.05-17.19-15.3-22.59-.27-.54-.36-1.08-.36-1.53,0-1.17.63-2.07,1.62-2.07.72,0,1.62.54,2.52,1.89,2.43,3.87,17.46,13.41,17.46,24.21,0,8.19-6.12,12.24-11.25,12.24-5.67,0-16.56-5.13-16.56-8.1ZM199.89,124.87c-.81-.54-1.17-1.08-1.17-1.62s1.17-2.25,2.52-2.25c2.97,0,13.14,9.27,15.84,14.13.27.36.36.81.36,1.26,0,.9-.45,1.8-.9,2.52-.63,1.17-9.99,3.87-11.97,3.87-.9,0-1.44-.27-1.44-.81,0-.45.54-1.17,1.71-1.98,1.8-1.17,3.42-2.34,5.58-4.14-1.98-3.33-6.57-8.46-10.53-10.98ZM236.78,179.04c-.81,0-1.44-.45-1.89-1.71-1.26-4.05-5.76-11.43-9.9-14.67-.72-.54-.99-1.08-.99-1.62,0-1.35,1.98-2.52,3.42-2.52.45,0,.81.09,1.08.36,9,7.92,12.24,14.85,12.24,16.56,0,2.7-3.24,3.6-3.96,3.6Z"/>
      <path class="cls-1" d="M292.68,181.83c9.54-.36,21.06-5.13,27.27-10.53,1.62-1.35,2.79-1.98,3.42-1.98.54,0,.72.27.72.81,0,2.97-13.5,17.55-32.4,17.55-16.11,0-19.26-10.98-19.26-23.22.09-8.28.99-23.13,1.89-37.71v-.54c0-2.97-1.71-4.05-1.71-4.86,0-.09,0-.18.09-.27.27-.36.9-.45,1.71-.45.45,0,6.12,0,6.12,3.51,0,.63-.18,1.26-.18,1.98-1.26,17.91-2.16,30.42-2.16,37.98v.36c0,13.5,5.31,17.37,13.59,17.37h.9ZM308.96,144.48c-.63,0-1.17-.27-1.71-1.08-1.44-2.34-6.21-8.28-8.01-9.9-.36-.36-.54-.81-.54-1.26,0-1.26,1.35-2.52,2.61-2.52,1.98,0,8.82,8.46,10.17,10.17.36.45.45.99.45,1.62,0,2.16-2.07,2.97-2.97,2.97ZM317.24,139.45c-.72,0-1.35-.27-1.89-.99-1.08-1.62-6.48-8.01-8.73-9.99-.36-.27-.45-.63-.45-1.08,0-1.17,1.26-2.52,2.7-2.52,2.07,0,11.34,9.45,11.34,11.7,0,.9-.99,2.88-2.97,2.88Z"/>
      <path class="cls-1" d="M392.31,131.97c0,1.26-1.8,1.98-3.69,2.52l-14.4,3.15c-3.42,15.12-8.46,34.02-13.86,46.17-1.17,2.52-1.89,3.6-3.69,3.6-1.89,0-2.79-1.62-2.79-3.69,0-1.44.45-3.06,1.26-4.41,4.41-6.39,9.9-25.29,13.23-40.59-8.82,1.62-11.43,2.07-12.87,2.07h-.45c-2.25-.27-4.5-3.06-4.5-4.5,0-.36.09-.63.45-.72.18-.09.27-.09.45-.09.63,0,1.44.27,2.07.36.45,0,.81.09,1.17.09.63,0,7.02-.99,14.76-2.43,1.08-4.86,1.71-9,1.98-11.97,0-.36.09-.9.09-1.44,0-.45-.09-.9-.18-1.17-.27-.81-.99-1.71-.99-2.34,0-.54.36-.72,1.08-.72,1.62,0,5.76.9,6.12,2.61v.36c0,1.98-.72,5.76-2.25,13.5,5.04-.99,9-2.07,10.17-2.7l1.26-.63c.36-.09.72-.18,1.08-.18,2.16,0,4.23,1.62,4.5,2.88v.27ZM414.71,183.18c-.09,1.62-1.26,2.16-4.32,2.43-.45,0-.81.09-1.26.09-9.54,0-26.64-7.11-26.64-15.21,0-.63.18-1.35,1.08-1.35.81,0,1.53.99,2.07,1.62,4.86,6.66,19.71,8.28,22.95,8.28h2.43c1.17.18,3.69,2.25,3.69,3.96v.18ZM411.02,141.33c1.26.09,3.06.99,3.06,3.51,0,1.35-.63,2.88-2.7,2.88-7.29,0-15.93.27-22.5,1.26-.81.09-1.71.18-2.52.18-.99,0-1.71-.18-1.71-.54,0-.54.81-1.26,3.06-2.52,5.04-2.88,19.26-4.77,22.77-4.77h.54Z"/>
      <path class="cls-1" d="M489.41,124.33c1.98,0,4.14,1.8,4.32,2.61,0,.18.09.27.09.45,0,.9-.9,1.53-3.06,2.16-6.03,1.71-13.41,3.51-20.79,4.86-.72,3.6-1.35,7.56-1.89,11.25,3.87-1.53,8.46-2.79,13.59-3.24.27-.99.54-2.16.63-2.97,0-.27.09-.54.09-.81,0-.36-.09-.81-.18-1.26-.09-.45-.27-.9-.27-1.35,0-.36.09-.54.36-.72.09-.09.27-.09.45-.09,1.35,0,4.77,1.8,5.13,2.88.18.36.18.81.18,1.17,0,.45-.36,2.34-.54,3.06,15.21,1.26,18.54,11.34,18.54,18.81,0,1.17-.09,2.52-.27,3.87-2.79,19.71-35.55,28.08-37.44,28.08-.99,0-1.44-.36-1.44-.81,0-.63.72-1.44,2.25-1.98,9.63-3.69,28.98-14.49,30.42-26.46.09-.9.18-1.89.18-2.79,0-12.51-9.81-13.77-13.95-14.04-3.42,7.47-10.08,15.84-17.46,22.86.54,2.79,1.44,4.86,1.98,6.48.09.18.09.45.09.72,0,3.42-3.33,3.69-3.51,3.69-.72,0-1.35-.36-1.8-1.53-.09-.54-.72-2.43-1.26-5.13-5.22,4.32-11.88,8.91-14.49,8.91-5.04,0-6.84-9.45-6.84-12.15,0-1.35.18-2.52.63-3.6,2.34-6.03,12.87-16.2,19.53-19.62.45-3.69,1.08-8.1,1.71-12.33-4.41.63-8.82,1.08-12.69,1.17h-.9c-3.06,0-4.5-3.69-4.59-3.87-.18-.27-.27-.63-.27-.9,0-.54.27-.9,1.08-.9.45,0,.99.09,1.71.36.45.18,1.08.18,1.71.18h1.08c3.42,0,8.46-.54,13.68-1.26l1.8-10.89v-.45c0-.36-.09-.72-.18-1.17-.27-.9-.9-1.62-.9-2.16v-.18c.09-.36.45-.45,1.08-.45.18,0,6.12.63,6.12,3.42,0,.27,0,.54-.09.9-.36,1.35-1.17,5.22-2.16,10.08,6.66-1.17,12.78-2.61,16.02-3.87.54-.27,1.17-.9,1.98-.99h.54ZM461.88,157.35c0-1.35.09-2.79.18-4.05-5.04,3.69-12.24,10.62-13.86,15.48-.09.45-.18.99-.18,1.44,0,2.16.9,4.68,1.98,6.57.18.18.36.45.63.45s.63-.09,1.08-.45c2.7-1.71,6.75-4.77,10.98-8.64-.45-3.15-.81-7.02-.81-10.8ZM467.46,150.69c-.27,2.43-.36,4.41-.36,6.21,0,2.61.18,4.68.36,6.66,4.86-4.95,9.54-10.71,12.33-16.38-3.69.36-8.01,1.44-12.33,3.51Z"/>
      <path class="cls-1" d="M531.72,129.1c.18-.54.72-.72,1.44-.72,1.26,0,3.15.63,4.41,1.26,1.8.9,1.8,2.16,1.8,3.33,0,7.74,1.17,33.3,9.09,39.6,2.34-4.86,7.11-12.87,7.92-14.49.63-1.26,1.35-1.8,1.8-1.8s.81.45.81,1.26c0,.45-.09,1.17-.45,1.98-.72,1.89-4.32,12.87-4.95,17.19-.36,3.87-1.98,4.32-3.06,4.32-.9,0-1.89-.36-2.97-.9-11.88-6.39-13.32-33.48-14.04-46.89-.09-1.89-1.8-3.15-1.8-3.96v-.18ZM599.3,162.03c0,2.43-1.98,3.78-3.69,3.78-1.17,0-2.25-.63-2.52-1.98-1.08-6.75-8.1-20.25-13.23-24.66-.72-.63-1.08-1.44-1.08-2.16,0-1.26.99-2.34,2.34-2.34,5.31,0,17.73,20.52,18.18,27.09v.27Z"/>
      <path class="cls-1" d="M637.74,123.52c0-1.35-1.44-2.52-1.44-3.24v-.18c.09-.36.54-.54,1.17-.54.36,0,6.21.54,6.21,3.51,0,.45-.09.99-.18,1.44-1.26,8.28-2.07,17.46-2.07,24.3,0,1.53,0,2.88.09,4.05,4.23-6.84,4.95-8.01,5.85-8.01.45,0,.72.36.72.99,0,.54-.18,1.26-.54,2.16-.72,1.98-3.24,11.16-3.6,14.31-.18,1.26-1.44,1.98-2.79,1.98-3.6,0-5.22-5.85-5.22-16.38,0-9.09,1.26-19.53,1.8-24.21v-.18ZM661.23,119.2c.18-.63.99-.81,2.07-.81,5.22,0,5.67,1.71,5.67,3.42.72,9.18,1.26,15.39,1.26,21.96,0,4.32-.18,8.82-.72,14.4-1.71,20.79-22.05,31.32-26.46,31.32-.45,0-.63-.09-.63-.36,0-.54,1.17-1.71,3.06-2.88,7.47-4.77,17.19-17.01,18.09-28.8.36-4.86.63-9.81.63-15.03,0-5.94-.36-12.42-.99-19.8-.27-1.53-1.98-2.34-1.98-3.24v-.18Z"/>
    </g>
  </g>
</svg>