<?xml version="1.0" encoding="UTF-8"?>
<svg id="_レイヤー_2" data-name="レイヤー_2" xmlns="http://www.w3.org/2000/svg" viewBox="0 0 529.11 178">
  <defs>
    <style>
      .cls-1 {
        fill: #f0f0f0;
      }
    </style>
  </defs>
  <g id="top_x5F_title">
    <g>
      <path class="cls-1" d="M0,60.59h8.88V5.87H0v-1.12h15.04c.75,0,1.49-.01,2.24-.04.75-.03,1.49-.07,2.24-.12.75,0,1.48-.01,2.2-.04.72-.03,1.45-.04,2.2-.04,3.04,0,5.85.36,8.44,1.08,2.59.72,4.83,1.75,6.72,3.08,1.89,1.33,3.37,2.93,4.44,4.8,1.07,1.87,1.6,3.95,1.6,6.24s-.61,4.53-1.84,6.4c-1.23,1.87-2.85,3.44-4.88,4.72-2.03,1.28-4.39,2.27-7.08,2.96-2.69.69-5.51,1.04-8.44,1.04-.75,0-1.71-.07-2.88-.2-1.17-.13-2.21-.28-3.12-.44v26.4h8.88v1.12H0v-1.12ZM16.88,33.07c1.07.21,2.19.37,3.36.48,1.17.11,2.21.16,3.12.16,3.95,0,7.03-1.16,9.24-3.48,2.21-2.32,3.32-5.83,3.32-10.52,0-2.72-.27-4.99-.8-6.8-.53-1.81-1.37-3.27-2.52-4.36-1.15-1.09-2.64-1.85-4.48-2.28-1.84-.43-4.04-.64-6.6-.64-1.01,0-1.93.03-2.76.08-.83.05-1.45.11-1.88.16v27.2Z"/>
      <path class="cls-1" d="M44.64,44.59c0-2.61.57-5.04,1.72-7.28,1.15-2.24,2.61-4.17,4.4-5.8,1.79-1.63,3.79-2.89,6-3.8,2.21-.91,4.39-1.36,6.52-1.36s4.31.45,6.52,1.36c2.21.91,4.21,2.17,6,3.8,1.79,1.63,3.25,3.56,4.4,5.8,1.15,2.24,1.72,4.67,1.72,7.28s-.53,4.87-1.6,7.08c-1.07,2.21-2.47,4.15-4.2,5.8-1.73,1.65-3.72,2.96-5.96,3.92-2.24.96-4.53,1.44-6.88,1.44s-4.64-.48-6.88-1.44c-2.24-.96-4.23-2.27-5.96-3.92-1.73-1.65-3.13-3.59-4.2-5.8-1.07-2.21-1.6-4.57-1.6-7.08ZM52.64,44.59c0,3.79.29,6.8.88,9.04.59,2.24,1.36,3.96,2.32,5.16.96,1.2,2.08,1.99,3.36,2.36,1.28.37,2.64.56,4.08.56s2.8-.19,4.08-.56c1.28-.37,2.4-1.16,3.36-2.36.96-1.2,1.73-2.92,2.32-5.16.59-2.24.88-5.25.88-9.04,0-3.2-.21-5.88-.64-8.04-.43-2.16-1.08-3.92-1.96-5.28-.88-1.36-1.99-2.33-3.32-2.92-1.33-.59-2.91-.88-4.72-.88s-3.39.29-4.72.88c-1.33.59-2.44,1.56-3.32,2.92-.88,1.36-1.53,3.12-1.96,5.28-.43,2.16-.64,4.84-.64,8.04Z"/>
      <path class="cls-1" d="M84.68,60.59h6.16V28.51h-6.16v-1.12h12.88v8.08h.16c.21-.8.56-1.71,1.04-2.72.48-1.01,1.15-1.99,2-2.92.85-.93,1.88-1.72,3.08-2.36,1.2-.64,2.65-.96,4.36-.96,1.23,0,2.29.2,3.2.6.91.4,1.65.91,2.24,1.52.59.61,1.01,1.32,1.28,2.12.27.8.4,1.6.4,2.4,0,1.76-.4,2.93-1.2,3.52-.8.59-1.73.88-2.8.88-2.35,0-3.52-.75-3.52-2.24,0-.48.05-.87.16-1.16.11-.29.23-.59.36-.88.13-.29.25-.63.36-1,.11-.37.16-.91.16-1.6,0-1.71-.93-2.56-2.8-2.56-.85,0-1.76.32-2.72.96-.96.64-1.85,1.57-2.68,2.8-.83,1.23-1.52,2.71-2.08,4.44-.56,1.73-.84,3.72-.84,5.96v18.32h6.96v1.12h-20v-1.12Z"/>
      <path class="cls-1" d="M116.44,27.39h6.16v-10.32c.43.16.83.29,1.2.4.37.11,1.01.16,1.92.16.8,0,1.49-.09,2.08-.28.59-.19,1.15-.49,1.68-.92v10.96h11.36v1.12h-11.36v26.16c0,1.49.15,2.71.44,3.64.29.93.68,1.65,1.16,2.16.48.51,1,.84,1.56,1,.56.16,1.11.24,1.64.24,1.87,0,3.37-.68,4.52-2.04,1.15-1.36,1.88-2.92,2.2-4.68l1.12.4c-.16.69-.4,1.47-.72,2.32-.32.85-.81,1.67-1.48,2.44-.67.77-1.53,1.41-2.6,1.92-1.07.51-2.4.76-4,.76-4,0-6.79-.77-8.36-2.32-1.57-1.55-2.36-3.73-2.36-6.56v-25.44h-6.16v-1.12Z"/>
      <path class="cls-1" d="M150.12,60.59V28.51h-6.16v-1.12h6.16v-4.24c0-1.87.09-3.48.28-4.84.19-1.36.44-2.56.76-3.6s.69-1.95,1.12-2.72c.43-.77.91-1.48,1.44-2.12,1.39-1.76,3.12-3.29,5.2-4.6,2.08-1.31,4.29-1.96,6.64-1.96,1.76,0,3.27.25,4.52.76,1.25.51,2.28,1.13,3.08,1.88.8.75,1.39,1.56,1.76,2.44.37.88.56,1.67.56,2.36,0,1.01-.29,1.95-.88,2.8-.59.85-1.57,1.28-2.96,1.28-.69,0-1.48-.16-2.36-.48-.88-.32-1.32-1.01-1.32-2.08,0-.91.25-1.72.76-2.44.51-.72.76-1.53.76-2.44,0-1.17-.48-1.96-1.44-2.36-.96-.4-1.95-.6-2.96-.6-2.19,0-4.08.96-5.68,2.88-1.6,1.92-2.4,4.91-2.4,8.96v11.12h9.92v1.12h-9.92v32.08h-6.88Z"/>
      <path class="cls-1" d="M157,28.03v37.44c0,1.87-.09,3.48-.28,4.84-.19,1.36-.44,2.56-.76,3.6s-.69,1.95-1.12,2.72c-.43.77-.91,1.48-1.44,2.12-1.39,1.76-3.12,3.29-5.2,4.6-2.08,1.31-4.29,1.96-6.64,1.96-1.76,0-3.27-.25-4.52-.76-1.25-.51-2.28-1.13-3.08-1.88-.8-.75-1.39-1.56-1.76-2.44-.37-.88-.56-1.67-.56-2.36,0-1.01.29-1.95.88-2.8.59-.85,1.57-1.28,2.96-1.28.69,0,1.48.16,2.36.48.88.32,1.32,1.01,1.32,2.08,0,.91-.25,1.72-.76,2.44-.51.72-.76,1.53-.76,2.44,0,1.17.48,1.96,1.44,2.36.96.4,1.95.6,2.96.6,2.19,0,4.08-.96,5.68-2.88,1.6-1.92,2.4-4.91,2.4-8.96V28.03h6.88Z"/>
      <path class="cls-1" d="M174.4,60.59h6.16V28.51h-6.16v-1.12h13.04v33.2h6.16v1.12h-19.2v-1.12ZM179.6,8.75c0-1.17.41-2.17,1.24-3s1.83-1.24,3-1.24,2.17.41,3,1.24c.83.83,1.24,1.83,1.24,3s-.41,2.17-1.24,3-1.83,1.24-3,1.24-2.17-.41-3-1.24c-.83-.83-1.24-1.83-1.24-3Z"/>
      <path class="cls-1" d="M195.08,60.59h6.16V5.15h-6.16v-1.12h13.04v56.56h6.16v1.12h-19.2v-1.12Z"/>
      <path class="cls-1" d="M215.76,60.59h6.16V28.51h-6.16v-1.12h13.04v33.2h6.16v1.12h-19.2v-1.12ZM220.96,8.75c0-1.17.41-2.17,1.24-3s1.83-1.24,3-1.24,2.17.41,3,1.24c.83.83,1.24,1.83,1.24,3s-.41,2.17-1.24,3-1.83,1.24-3,1.24-2.17-.41-3-1.24c-.83-.83-1.24-1.83-1.24-3Z"/>
      <path class="cls-1" d="M239.8,44.59c0-2.61.57-5.04,1.72-7.28,1.15-2.24,2.61-4.17,4.4-5.8,1.79-1.63,3.79-2.89,6-3.8,2.21-.91,4.39-1.36,6.52-1.36s4.31.45,6.52,1.36c2.21.91,4.21,2.17,6,3.8,1.79,1.63,3.25,3.56,4.4,5.8,1.15,2.24,1.72,4.67,1.72,7.28s-.53,4.87-1.6,7.08c-1.07,2.21-2.47,4.15-4.2,5.8-1.73,1.65-3.72,2.96-5.96,3.92-2.24.96-4.53,1.44-6.88,1.44s-4.64-.48-6.88-1.44c-2.24-.96-4.23-2.27-5.96-3.92-1.73-1.65-3.13-3.59-4.2-5.8-1.07-2.21-1.6-4.57-1.6-7.08ZM247.8,44.59c0,3.79.29,6.8.88,9.04.59,2.24,1.36,3.96,2.32,5.16.96,1.2,2.08,1.99,3.36,2.36,1.28.37,2.64.56,4.08.56s2.8-.19,4.08-.56c1.28-.37,2.4-1.16,3.36-2.36.96-1.2,1.73-2.92,2.32-5.16.59-2.24.88-5.25.88-9.04,0-3.2-.21-5.88-.64-8.04-.43-2.16-1.08-3.92-1.96-5.28-.88-1.36-1.99-2.33-3.32-2.92-1.33-.59-2.91-.88-4.72-.88s-3.39.29-4.72.88c-1.33.59-2.44,1.56-3.32,2.92-.88,1.36-1.53,3.12-1.96,5.28-.43,2.16-.64,4.84-.64,8.04Z"/>
      <path class="cls-1" d="M310.79,46.27h.8c.53,2.61,1.22,4.8,2.06,6.59.84,1.79,1.77,3.26,2.79,4.41,1.01,1.16,2.07,2.05,3.18,2.68,1.11.63,2.23,1.09,3.36,1.38,1.13.29,2.22.46,3.26.51,1.04.05,2.01.07,2.93.07,2.56,0,4.66-.39,6.3-1.16,1.64-.77,2.94-1.75,3.91-2.93.96-1.18,1.64-2.46,2.03-3.84s.58-2.64.58-3.8c0-1.69-.31-3.14-.94-4.34-.63-1.21-1.42-2.23-2.39-3.08-.97-.84-2.02-1.53-3.15-2.06-1.13-.53-2.21-.94-3.22-1.23l-8.32-2.53c-3.91-1.21-6.86-2.8-8.86-4.78-2-1.98-3-4.63-3-7.96,0-2.17.39-4.18,1.16-6.04.77-1.86,1.86-3.46,3.26-4.81,1.4-1.35,3.08-2.41,5.03-3.18,1.95-.77,4.09-1.16,6.4-1.16,1.69,0,3.1.14,4.23.43,1.13.29,2.11.61,2.93.98.82.36,1.56.69,2.21.98.65.29,1.31.43,1.99.43.63,0,1.05-.08,1.27-.25.22-.17.52-.59.9-1.27h1.01v13.1h-.87c-.29-1.74-.79-3.41-1.48-5.03-.7-1.62-1.61-3.04-2.71-4.27-1.11-1.23-2.45-2.22-4.02-2.97-1.57-.75-3.39-1.12-5.46-1.12-1.16,0-2.44.16-3.84.47-1.4.31-2.7.86-3.91,1.63-1.21.77-2.21,1.79-3,3.04-.8,1.26-1.19,2.85-1.19,4.78,0,1.54.31,2.86.94,3.94s1.43,2,2.42,2.75c.99.75,2.1,1.38,3.33,1.88s2.47.95,3.73,1.34l8.76,2.75c.92.29,2.07.68,3.47,1.16,1.4.48,2.76,1.21,4.09,2.17,1.33.97,2.46,2.24,3.4,3.84.94,1.59,1.41,3.62,1.41,6.08,0,2.27-.42,4.43-1.27,6.48-.85,2.05-2.06,3.86-3.65,5.43-1.59,1.57-3.52,2.82-5.79,3.76-2.27.94-4.83,1.41-7.67,1.41-1.01,0-1.91-.01-2.68-.04-.77-.03-1.5-.08-2.17-.18-.68-.1-1.35-.21-2.03-.33-.68-.12-1.42-.3-2.24-.54-.97-.29-2-.63-3.11-1.01-1.11-.39-2.07-.58-2.89-.58-.72,0-1.22.14-1.48.43-.27.29-.49.68-.69,1.16h-1.09v-15.56Z"/>
      <path class="cls-1" d="M353.52,60.59h6.16V28.51h-6.16v-1.12h13.04v33.2h6.16v1.12h-19.2v-1.12ZM358.72,13.75c0-1.17.41-2.17,1.24-3,.83-.83,1.83-1.24,3-1.24s2.17.41,3,1.24c.83.83,1.24,1.83,1.24,3s-.41,2.17-1.24,3c-.83.83-1.83,1.24-3,1.24s-2.17-.41-3-1.24c-.83-.83-1.24-1.83-1.24-3Z"/>
      <path class="cls-1" d="M376.32,27.39h6.16v-10.32c.43.16.83.29,1.2.4.37.11,1.01.16,1.92.16.8,0,1.49-.09,2.08-.28.59-.19,1.15-.49,1.68-.92v10.96h11.36v1.12h-11.36v26.16c0,1.49.15,2.71.44,3.64.29.93.68,1.65,1.16,2.16.48.51,1,.84,1.56,1,.56.16,1.11.24,1.64.24,1.87,0,3.37-.68,4.52-2.04,1.15-1.36,1.88-2.92,2.2-4.68l1.12.4c-.16.69-.4,1.47-.72,2.32-.32.85-.81,1.67-1.48,2.44-.67.77-1.53,1.41-2.6,1.92-1.07.51-2.4.76-4,.76-4,0-6.79-.77-8.36-2.32-1.57-1.55-2.36-3.73-2.36-6.56v-25.44h-6.16v-1.12Z"/>
      <path class="cls-1" d="M413.28,41.87c0,.53-.01,1.08-.04,1.64-.03.56-.04,1.27-.04,2.12,0,1.76.11,3.6.32,5.52.21,1.92.68,3.65,1.4,5.2.72,1.55,1.79,2.83,3.2,3.84,1.41,1.01,3.29,1.52,5.64,1.52s4.28-.35,5.8-1.04c1.52-.69,2.72-1.53,3.6-2.52.88-.99,1.53-1.99,1.96-3,.43-1.01.75-1.84.96-2.48l1.2.24c-.16.59-.47,1.43-.92,2.52-.45,1.09-1.17,2.19-2.16,3.28-.99,1.09-2.32,2.05-4,2.88-1.68.83-3.85,1.24-6.52,1.24s-5.13-.43-7.4-1.28c-2.27-.85-4.23-2.08-5.88-3.68-1.65-1.6-2.93-3.51-3.84-5.72-.91-2.21-1.36-4.68-1.36-7.4,0-2.35.47-4.63,1.4-6.84.93-2.21,2.21-4.17,3.84-5.88,1.63-1.71,3.53-3.08,5.72-4.12,2.19-1.04,4.53-1.56,7.04-1.56,1.49,0,3.09.27,4.8.8,1.71.53,3.29,1.4,4.76,2.6,1.47,1.2,2.69,2.79,3.68,4.76.99,1.97,1.48,4.43,1.48,7.36h-24.64ZM429.76,40.75c.11-.75.16-1.44.16-2.08v-2c0-1.81-.17-3.31-.52-4.48-.35-1.17-.83-2.11-1.44-2.8-.61-.69-1.36-1.19-2.24-1.48-.88-.29-1.83-.44-2.84-.44-1.81,0-3.31.36-4.48,1.08-1.17.72-2.11,1.69-2.8,2.92-.69,1.23-1.21,2.64-1.56,4.24-.35,1.6-.57,3.28-.68,5.04h16.4Z"/>
      <rect class="cls-1" x="19.41" y="5" width="3" height="56"/>
      <path class="cls-1" d="M362.91,3.63c5.61,0,10.28,3.39,11.29,7.87.13-.59.21-1.19.21-1.82,0-5.35-5.15-9.68-11.5-9.68s-11.5,4.34-11.5,9.68c0,.62.08,1.23.21,1.82,1.01-4.48,5.68-7.87,11.29-7.87Z"/>
    </g>
    <g>
      <path class="cls-1" d="M1.79,155.25h5.54v-28.87H1.79v-1.01h5.54v-3.82c0-1.68.08-3.13.25-4.36.17-1.22.4-2.3.68-3.24s.62-1.75,1.01-2.45c.38-.7.82-1.33,1.3-1.91,1.25-1.58,2.81-2.96,4.68-4.14,1.87-1.18,3.86-1.76,5.98-1.76,1.58,0,2.94.23,4.07.68,1.13.46,2.05,1.02,2.77,1.69.72.67,1.25,1.4,1.58,2.2.34.79.5,1.5.5,2.12,0,.91-.26,1.75-.79,2.52-.53.77-1.42,1.15-2.66,1.15-.62,0-1.33-.14-2.12-.43s-1.19-.91-1.19-1.87c0-.82.23-1.55.68-2.2.46-.65.68-1.38.68-2.2,0-1.05-.43-1.76-1.3-2.12-.86-.36-1.75-.54-2.66-.54-1.97,0-3.67.86-5.11,2.59s-2.16,4.42-2.16,8.06v10.01h8.93v1.01h-8.93v28.87h6.55v1.01H1.79v-1.01Z"/>
      <path class="cls-1" d="M34.26,138.4c0,.48-.01.97-.04,1.48-.02.5-.04,1.14-.04,1.91,0,1.58.1,3.24.29,4.97.19,1.73.61,3.29,1.26,4.68.65,1.39,1.61,2.54,2.88,3.46,1.27.91,2.96,1.37,5.08,1.37s3.85-.31,5.22-.94c1.37-.62,2.45-1.38,3.24-2.27.79-.89,1.38-1.79,1.76-2.7.38-.91.67-1.66.86-2.23l1.08.22c-.14.53-.42,1.29-.83,2.27-.41.98-1.06,1.97-1.94,2.95-.89.98-2.09,1.85-3.6,2.59-1.51.74-3.47,1.12-5.87,1.12s-4.62-.38-6.66-1.15c-2.04-.77-3.8-1.87-5.29-3.31-1.49-1.44-2.64-3.16-3.46-5.15-.82-1.99-1.22-4.21-1.22-6.66,0-2.11.42-4.16,1.26-6.16.84-1.99,1.99-3.76,3.46-5.29,1.46-1.54,3.18-2.77,5.15-3.71,1.97-.94,4.08-1.4,6.34-1.4,1.34,0,2.78.24,4.32.72,1.54.48,2.96,1.26,4.28,2.34,1.32,1.08,2.42,2.51,3.31,4.28.89,1.78,1.33,3.99,1.33,6.62h-22.18ZM49.09,137.39c.1-.67.14-1.3.14-1.87v-1.8c0-1.63-.16-2.98-.47-4.03-.31-1.05-.74-1.9-1.3-2.52-.55-.62-1.22-1.07-2.02-1.33s-1.64-.4-2.56-.4c-1.63,0-2.98.32-4.03.97-1.06.65-1.9,1.52-2.52,2.63-.62,1.1-1.09,2.38-1.4,3.82-.31,1.44-.52,2.95-.61,4.54h14.76Z"/>
      <path class="cls-1" d="M94.17,155.46c-.62.48-1.37.9-2.23,1.26-.86.36-1.92.54-3.17.54-2.3,0-3.97-.49-5-1.48-1.03-.98-1.74-2.36-2.12-4.14h-.14c-.19.43-.46.97-.79,1.62-.34.65-.85,1.27-1.55,1.87-.7.6-1.62,1.1-2.77,1.51-1.15.41-2.62.61-4.39.61-2.02,0-3.62-.23-4.82-.68-1.2-.46-2.14-1.02-2.81-1.69-.67-.67-1.12-1.43-1.33-2.27-.22-.84-.32-1.62-.32-2.34,0-1.68.33-3.02,1.01-4.03.67-1.01,1.55-1.81,2.63-2.41,1.08-.6,2.28-1.09,3.6-1.48,1.32-.38,2.65-.79,4-1.22,1.58-.53,2.89-.98,3.92-1.37,1.03-.38,1.84-.85,2.41-1.4.58-.55.97-1.25,1.19-2.09.22-.84.32-1.98.32-3.42,0-1.15-.07-2.18-.22-3.1-.14-.91-.41-1.69-.79-2.34-.38-.65-.94-1.14-1.66-1.48-.72-.33-1.68-.5-2.88-.5-1.58,0-2.89.28-3.92.83-1.03.55-1.55,1.45-1.55,2.7,0,.82.07,1.62.22,2.41s.22,1.38.22,1.76c0,.67-.24,1.24-.72,1.69-.48.46-1.18.68-2.09.68-1.58,0-2.57-.29-2.95-.86-.38-.58-.58-1.32-.58-2.23,0-1.05.24-2.06.72-3.02.48-.96,1.19-1.81,2.12-2.56s2.11-1.33,3.53-1.76c1.42-.43,3.04-.65,4.86-.65,2.21,0,4.06.28,5.54.83,1.49.55,2.69,1.3,3.6,2.23.91.94,1.56,1.99,1.94,3.17.38,1.18.58,2.41.58,3.71v17.93c0,1.39.22,2.33.65,2.81.43.48,1.06.72,1.87.72.53,0,1.08-.1,1.66-.29.58-.19,1.13-.48,1.66-.86l.58.79ZM81.57,138.61h-.14c-.1.62-.89,1.25-2.38,1.87l-5.4,2.16c-1.54.62-2.71,1.5-3.53,2.63-.82,1.13-1.22,2.53-1.22,4.21,0,.72.07,1.46.22,2.23.14.77.41,1.45.79,2.05.38.6.92,1.09,1.62,1.48.7.38,1.6.58,2.7.58,1.58,0,2.87-.34,3.85-1.01.98-.67,1.73-1.51,2.23-2.52.5-1.01.84-2.1,1.01-3.28.17-1.18.25-2.24.25-3.2v-7.2Z"/>
      <path class="cls-1" d="M95.6,125.37h5.54v-9.29c.38.14.74.26,1.08.36.33.1.91.14,1.73.14.72,0,1.34-.08,1.87-.25.53-.17,1.03-.44,1.51-.83v9.86h10.22v1.01h-10.22v23.54c0,1.34.13,2.44.4,3.28.26.84.61,1.49,1.04,1.94.43.46.9.76,1.4.9.5.14,1,.22,1.48.22,1.68,0,3.04-.61,4.07-1.84,1.03-1.22,1.69-2.63,1.98-4.21l1.01.36c-.14.62-.36,1.32-.65,2.09s-.73,1.5-1.33,2.2c-.6.7-1.38,1.27-2.34,1.73-.96.46-2.16.68-3.6.68-3.6,0-6.11-.7-7.52-2.09-1.42-1.39-2.12-3.36-2.12-5.9v-22.9h-5.54v-1.01Z"/>
      <path class="cls-1" d="M124.55,153.23c0-1.06.37-1.96,1.12-2.7.74-.74,1.64-1.12,2.7-1.12s1.96.37,2.7,1.12c.74.75,1.12,1.65,1.12,2.7s-.37,1.96-1.12,2.7c-.74.74-1.64,1.12-2.7,1.12s-1.96-.37-2.7-1.12c-.74-.74-1.12-1.64-1.12-2.7Z"/>
    </g>
    <g>
      <path class="cls-1" d="M155.09,155.89h6.34l19.44-51.55h1.73l19.58,51.55h6.41v1.01h-22.18v-1.01h7.99l-7.56-20.02h-16.7l-7.56,20.02h7.99v1.01h-15.48v-1.01ZM178.49,113.91l-7.92,20.95h15.84l-7.92-20.95Z"/>
      <path class="cls-1" d="M210.89,155.89h7.99v-49.25h-7.99v-1.01h25.52v1.01h-10.33v49.25h10.33v1.01h-25.52v-1.01Z"/>
      <path class="cls-1" d="M239.6,155.89h5.99v-49.25h-5.99v-1.01h11.68c.58,0,1.15-.01,1.73-.04.58-.02,1.15-.06,1.73-.11.58,0,1.15-.01,1.73-.04.58-.02,1.15-.04,1.73-.04,2.83,0,5.33.16,7.49.47,2.16.31,4.18,1.21,6.05,2.7,1.68,1.29,2.87,2.76,3.56,4.39.7,1.63,1.04,3.17,1.04,4.61,0,.72-.13,1.64-.4,2.77-.26,1.13-.84,2.28-1.73,3.46-.89,1.18-2.17,2.26-3.85,3.24-1.68.98-3.91,1.65-6.7,1.98v.14c.77.1,1.81.28,3.13.54,1.32.27,2.66.71,4.03,1.33,1.37.62,2.63,1.45,3.78,2.48,1.15,1.03,1.97,2.37,2.45,4,.29.96.49,2.05.61,3.28.12,1.22.22,2.48.29,3.78.07,1.29.14,2.54.22,3.74.07,1.2.2,2.21.4,3.02.29,1.25.74,2.38,1.37,3.38.62,1.01,1.63,1.51,3.02,1.51.62,0,1.27-.12,1.94-.36.67-.24,1.27-.62,1.8-1.15l.65.79c-.24.19-.52.4-.83.61-.31.22-.71.42-1.19.61-.48.19-1.07.35-1.76.47-.7.12-1.55.18-2.56.18-1.92,0-3.52-.24-4.79-.72-1.27-.48-2.29-1.19-3.06-2.12-.77-.94-1.33-2.09-1.69-3.46-.36-1.37-.61-2.96-.76-4.79l-.5-6.55c-.19-2.4-.67-4.27-1.44-5.62-.77-1.34-1.67-2.33-2.7-2.95-1.03-.62-2.1-1-3.2-1.12-1.1-.12-2.06-.18-2.88-.18h-7.2v25.99h7.99v1.01h-21.18v-1.01ZM252.8,128.89h6.62c1.34,0,2.57-.17,3.67-.5,1.1-.33,2.05-.92,2.84-1.76.79-.84,1.4-1.98,1.84-3.42.43-1.44.65-3.26.65-5.47,0-2.5-.32-4.5-.97-6.01-.65-1.51-1.49-2.65-2.52-3.42-1.03-.77-2.18-1.27-3.46-1.51-1.27-.24-2.53-.36-3.78-.36-.86,0-1.74.01-2.63.04-.89.03-1.65.08-2.27.18v22.25Z"/>
      <path class="cls-1" d="M288.8,155.89h7.99v-49.25h-7.99v-1.01h23.18v1.01h-7.99v49.25h7.99v1.01h-23.18v-1.01Z"/>
      <path class="cls-1" d="M336.54,155.89h9.99v-49.25h-9.99v-1.01h43.18v12.46h-.79c-.62-1.87-1.3-3.52-2.02-4.93-.72-1.42-1.58-2.62-2.59-3.6-1.01-.98-2.21-1.72-3.6-2.2-1.39-.48-3.07-.72-5.04-.72h-11.95v23.33h4.68c1.58,0,2.93-.14,4.03-.43,1.1-.29,2.05-.83,2.84-1.62.79-.79,1.46-1.87,2.02-3.24.55-1.37,1.09-3.13,1.62-5.29h.79v22.39h-.79c-.34-1.39-.68-2.74-1.04-4.03-.36-1.3-.86-2.45-1.51-3.46-.65-1.01-1.51-1.81-2.59-2.41-1.08-.6-2.48-.9-4.21-.9h-5.83v24.91h7.99v1.01h-25.18v-1.01Z"/>
      <path class="cls-1" d="M419.37,156.9h-11.59v-7.27h-.14c-.43.96-.95,1.93-1.55,2.92-.6.98-1.34,1.87-2.23,2.66-.89.79-1.92,1.44-3.1,1.94-1.18.5-2.56.76-4.14.76-1.92,0-3.48-.22-4.68-.65-1.2-.43-2.14-.89-2.81-1.37-.34-.24-.71-.54-1.12-.9-.41-.36-.78-.85-1.12-1.48-.34-.62-.62-1.43-.86-2.41-.24-.98-.36-2.2-.36-3.64v-20.45h-5.54v-1.01h11.74v22.1c0,1.25.08,2.4.25,3.46.17,1.06.49,1.98.97,2.77.48.79,1.1,1.42,1.87,1.87.77.46,1.78.68,3.02.68,1.06,0,2.15-.31,3.28-.94,1.13-.62,2.16-1.51,3.1-2.66.94-1.15,1.71-2.53,2.34-4.14.62-1.61.94-3.42.94-5.44v-16.7h-5.47v-1.01h11.66v29.88h5.54v1.01Z"/>
      <path class="cls-1" d="M433.85,126.01c.56-1.01,0,32.33,0,32.33,0,2.3-.06,4.21-.18,5.72-.12,1.51-.28,2.75-.47,3.71-.19.96-.41,1.71-.65,2.27-.24.55-.48,1.07-.72,1.55-.58,1.15-1.24,2.11-1.98,2.88-.75.77-1.51,1.38-2.3,1.84-.79.46-1.6.77-2.41.94-.82.17-1.56.25-2.23.25-.77,0-1.61-.13-2.52-.4-.91-.26-1.76-.66-2.56-1.19-.79-.53-1.46-1.21-2.02-2.05-.55-.84-.83-1.81-.83-2.92s.31-2.02.94-2.59,1.39-.86,2.3-.86c.86,0,1.51.23,1.94.68.43.46.65,1.07.65,1.84,0,.58-.08,1.13-.25,1.66s-.25,1.2-.25,2.02c0,.96.31,1.67.94,2.12.62.46,1.32.68,2.09.68,1.39,0,2.46-.57,3.2-1.69.74-1.13,1.12-2.94,1.12-5.44,0,0-.75-45.35,0-43.35s5.63,1.02,6.19,0Z"/>
      <path class="cls-1" d="M451.42,155.89h5.54v-28.87h-5.54v-1.01h11.74v29.88h5.54v1.01h-17.28v-1.01ZM456.1,109.23c0-1.06.37-1.96,1.12-2.7s1.64-1.12,2.7-1.12,1.96.37,2.7,1.12c.74.75,1.12,1.64,1.12,2.7s-.37,1.96-1.12,2.7c-.75.74-1.64,1.12-2.7,1.12s-1.96-.37-2.7-1.12c-.75-.74-1.12-1.64-1.12-2.7Z"/>
      <path class="cls-1" d="M471.94,126.01h5.54v-9.29c.38.14.74.26,1.08.36.33.1.91.14,1.73.14.72,0,1.34-.08,1.87-.25.53-.17,1.03-.44,1.51-.83v9.86h10.22v1.01h-10.22v23.54c0,1.34.13,2.44.4,3.28.26.84.61,1.49,1.04,1.94.43.46.9.76,1.4.9s1,.22,1.48.22c1.68,0,3.04-.61,4.07-1.84,1.03-1.22,1.69-2.63,1.98-4.21l1.01.36c-.14.62-.36,1.32-.65,2.09-.29.77-.73,1.5-1.33,2.2-.6.7-1.38,1.27-2.34,1.73-.96.46-2.16.68-3.6.68-3.6,0-6.11-.7-7.52-2.09s-2.12-3.36-2.12-5.9v-22.9h-5.54v-1.01Z"/>
      <path class="cls-1" d="M529.11,156.11c-.62.48-1.37.9-2.23,1.26-.86.36-1.92.54-3.17.54-2.3,0-3.97-.49-5-1.48-1.03-.98-1.74-2.36-2.12-4.14h-.14c-.19.43-.46.97-.79,1.62-.34.65-.85,1.27-1.55,1.87-.7.6-1.62,1.11-2.77,1.51-1.15.41-2.62.61-4.39.61-2.02,0-3.62-.23-4.82-.68-1.2-.46-2.14-1.02-2.81-1.69-.67-.67-1.12-1.43-1.33-2.27-.21-.84-.32-1.62-.32-2.34,0-1.68.33-3.02,1.01-4.03.67-1.01,1.55-1.81,2.63-2.41,1.08-.6,2.28-1.09,3.6-1.48s2.65-.79,4-1.22c1.58-.53,2.89-.98,3.92-1.37s1.84-.85,2.41-1.4.97-1.25,1.19-2.09.32-1.98.32-3.42c0-1.15-.07-2.18-.22-3.1-.14-.91-.41-1.69-.79-2.34s-.94-1.14-1.66-1.48-1.68-.5-2.88-.5c-1.58,0-2.89.28-3.92.83-1.03.55-1.55,1.45-1.55,2.7,0,.82.07,1.62.22,2.41.14.79.22,1.38.22,1.76,0,.67-.24,1.24-.72,1.69-.48.46-1.18.68-2.09.68-1.58,0-2.57-.29-2.95-.87-.38-.58-.58-1.32-.58-2.23,0-1.06.24-2.06.72-3.02.48-.96,1.19-1.81,2.12-2.56.94-.74,2.11-1.33,3.53-1.76,1.42-.43,3.04-.65,4.86-.65,2.21,0,4.06.28,5.54.83,1.49.55,2.69,1.3,3.6,2.23.91.94,1.56,1.99,1.94,3.17.38,1.18.58,2.41.58,3.71v17.93c0,1.39.22,2.33.65,2.81s1.05.72,1.87.72c.53,0,1.08-.1,1.66-.29s1.13-.48,1.66-.86l.58.79ZM516.51,139.26h-.14c-.1.62-.89,1.25-2.38,1.87l-5.4,2.16c-1.54.62-2.71,1.5-3.53,2.63-.82,1.13-1.22,2.53-1.22,4.21,0,.72.07,1.46.21,2.23.14.77.41,1.45.79,2.05.38.6.92,1.09,1.62,1.48.7.38,1.6.58,2.7.58,1.58,0,2.87-.33,3.85-1.01.98-.67,1.73-1.51,2.23-2.52.5-1.01.84-2.1,1.01-3.28.17-1.18.25-2.24.25-3.21v-7.2Z"/>
      <rect class="cls-1" x="228.41" y="106" width="3" height="50"/>
      <rect class="cls-1" x="341.41" y="106" width="3" height="50"/>
      <circle class="cls-1" cx="236.41" cy="119" r="2"/>
      <circle class="cls-1" cx="236.41" cy="144" r="2"/>
      <circle class="cls-1" cx="336.41" cy="119" r="2"/>
      <circle class="cls-1" cx="336.41" cy="144" r="2"/>
      <ellipse class="cls-1" cx="420.91" cy="171" rx="10.5" ry="7"/>
      <path class="cls-1" d="M426.79,105.42v7.63c0,4.95,9.71,8.83,13.61,11.95,5,4,5,16-2,27,9-6,11-19,8-27s-19.61-13-19.61-19.58Z"/>
    </g>
  </g>
</svg>