<?xml version="1.0" encoding="UTF-8"?>
<svg id="_レイヤー_2" data-name="レイヤー_2" xmlns="http://www.w3.org/2000/svg" viewBox="0 0 1124.21 482.28">
  <defs>
    <style>
      .cls-1 {
        fill: #f0f0f0;
      }
    </style>
  </defs>
  <g id="_レイヤー_3" data-name="レイヤー_3">
    <path class="cls-1" d="M.12,100.46c.79-20.67,21.74-34.73,41.35-32.19,12.84,1.66,22.05,10.94,25.88,22.73,3.04,9.23,3.27,18.59,2.65,28.02-1.03,15.36-2.39,33.4-3.74,48.76-1.47,17.78-2.52,42.94-5.78,60.37-1.62,9.17-3.69,18.7-8.41,27.02-.8,1.36-1.86,2.93-3.47,4.56-3.51,3.65-9.96,1.4-10.39-3.64,0,0-.64-6.29-.64-6.29,2.74-7.96,4.64-16.55,6.7-24.95,4.33-19.13,8.71-38.65,11.32-58.21,1.88-14.79,3.2-29.67,4.23-44.54.93-12.74.89-28.55-9.37-37.43-3.62-3.04-8.54-4.46-13.23-4.04-7.86.56-16.72,6.16-17.75,14.41,0,0-.04,1.07-.04,1.07,0,.49.15,1.04.17,1.53,2.4,5.81-.2,12.33-6.32,14.26-7.2,2.3-14.35-4.05-13.18-11.44H.12Z"/>
    <path class="cls-1" d="M64.1,92.77c-.2-30.88,71.58-35.2,77.99-2.05,2.34,11.33-2.52,22.85-9.04,31.68-10.47,14.31-23.39,25.46-36.9,36.67-2.79,2.32-5.67,4.61-8.49,7.17-9.81,8.17-22.06-5.36-12.9-14.32,1.61-1.45,3.57-2.25,5.57-2.44,6.4-.59,12.41-2.75,18.02-5.65,13.4-7.13,25.29-19.85,27.39-35.19.5-4.05.4-7.59-.77-11.23-2.48-10.51-25.6-9.03-33.72-6.46-2.92.81-5.42,1.96-7.19,3.18-.1.02.2-.7.03-1.35-.52,13.26-19.48,13.26-20,0h0Z"/>
    <path class="cls-1" d="M128.15,188.71c-6.45-.4-11.32,5.33-13.42,10.9-2.02,5.28-.82,11.75.19,16.75.45,2.26.77,4.24,1.42,5.99,2.2,7.09,9.61,11.22,16.97,12.39,9.13,1.78,16.38-6.58,16.91-15.25.36-3.67-.06-7.14-.94-10.54-.46-1.82-1.41-3.66-1.89-5.44-2.21-9.05-9.86-14.42-19.24-14.79h0ZM128.05,184.82c7.61-.57,15.6-.46,22.67,3.69,4.58,2.69,8.74,7.05,10.51,12.24,2.02,6.97,1.23,14.77-1.55,21.32-3.15,7.35-7.79,13.87-14.54,18.38-5.84,4.03-13.52,4.87-20.53,5.03-5.48-.15-10.73-.97-16-4.02-12.89-7.42-17.13-25-8.93-37.26,6.51-10.03,16.23-18.22,28.37-19.38h0Z"/>
    <path class="cls-1" d="M165.63,183.02c-3.83-2.95-5.92-8.07-3-12.38,2.58-3.63,7.28-4.79,11.32-5.25,12.78-1.39,22.14,5.19,24.36,17.95,3.46,15.73,2.08,32.15-1.57,47.71-1.05,4.25-2.2,8.53-3.9,12.6-2.11,6.2-11.23,3.62-9.73-2.79,1.66-5.89,2.12-12.21,2.54-18.92.64-9.99.97-21.4,5.56-31.27,3.31-7.6,10.44-14.42,18.19-17.51,3.87-1.65,7.78-2.65,11.62-3.33,5.45-.97,10.65,2.66,11.63,8.11.97,5.45-2.66,10.65-8.11,11.63-11.99.54-18.32,4.12-22.21,15.89-3.96,11.94-4.35,25.6-9.4,37.99,0,0-9.53-3.56-9.53-3.56,0,0,.66-2.53.66-2.53,3.45-14.87,5.83-30.27,6.45-45.48,0-.93-.04-3.42-.04-4.39-.14-1.58-.21-4.06-.53-5.58-1.04-6.98-7.71-10.68-14.22-8.15-1.24.49-3.09,1.42-3.34,2.66.07.04.08.1.19.06.23-.11.66-.37.98-1.55.18-.74.09-1.84-.19-2.61-.16-.37-.34-.72-.49-1.07-.05-.12-.23-.29-.18-.34,0-.15-.05-.28-.1-.41,8.13,4.92,1.49,16.81-6.95,12.51h0Z"/>
    <path class="cls-1" d="M245.57,157.82c-.19-.1-.41-.13-.62-.1-.01.01.04.03.06.04.66.5,1.72.53,2.82.71,5.83.55,12.33-.09,18.21-.98,0,0,.15-.02.15-.02.07-.01-.02.02-.03.03-.05.04-.09.08-.13.13,3.38-1.69,7.5-.32,9.19,3.06,2.06,4.28-.41,8.55-4.73,9.96-4.58,1.89-9.21,3.41-14.02,4.65-4.09,1.01-8.33,1.94-12.88,1.84-2.16.01-4.87-.55-6.96-1.44-4.94-2.47-6.94-8.48-4.47-13.42,2.47-4.94,8.48-6.94,13.42-4.47h0Z"/>
    <path class="cls-1" d="M266.91,151.73c-7.77,18.44-13.03,44.99-7.59,64.31,1.58,4.57,4.05,10.1,9.07,9.07,4.97-1.14,9.91,1.96,11.06,6.92s-1.96,9.91-6.92,11.06c-2.25.63-4.57-.09-6.69-.68-2.88-.77-5.78-2.07-8.21-3.86-6.35-4.53-9.52-12.71-10.77-19.4-1.63-8.48-1.7-16.46-1.62-24.38.22-15.48,1.94-31.53,2.07-46.97-.13-5.66,4.35-10.35,10.01-10.48,7.39-.3,12.71,7.74,9.6,14.41h0Z"/>
    <path class="cls-1" d="M288.13,149.38c7.4,1.44,14.84.13,22.01-1.69,7.17-1.86,14.16-4.1,20.75-7.7,12.39-6.26,22.04,11.07,10.17,18.3-1.92,1.07-4.02,1.46-6.06,1.27-3.8-.35-7.51-.27-11.19-.02-10.94,1.05-22.4,2.34-31.74,8.62-4.69,3.43-11.28,2.4-14.7-2.29-5.71-7.83,1.43-18.55,10.76-16.48h0Z"/>
    <path class="cls-1" d="M329.2,74.99c-.48.06-.37.36.25.29,4.73-.99,9.81-7.53,9.79-12.03-.12-4.44-6.93-5.62-10.42-6.21-19.88-2.46-18.2,48.62-16.97,61.65.72,8.35,1.85,16.72,3.5,24.95,1.33,6.59,1.68,13.39,2.01,20.07.86,31.99-.54,93.84-19.86,119.39-3.12,4.13-7.25,7.8-12.28,9.87-2.82,1.12-5.73,2.11-8.71,2.77-11.7,2.86-26.34.51-32.35-11.46-6.07-13.13,4.23-24.46,17.4-24.27,5.4-.19,9.93,4.03,10.12,9.43.24,5.79-4.78,10.59-10.56,10.09-1.47-.14-1.58.31-.79-.58.42-.54.82-1.71.47-2.29,0-.01-.03-.02-.05-.03,0,0,0,.01,0,.02-.05.1.15.57.67,1.03,4.28,3.49,12.3,2.4,17.78.76,1.4-.37,2.55-.94,3.9-1.89,20.33-16.44,27.95-75.61,28.82-101.54.24-9.25.43-18.6-.84-27.76-.93-5.53-2.1-11.15-2.94-16.7-3.12-21.27-7.92-48.79-.86-69.48,5.56-15.61,19.04-19.81,34.11-14.62,19.54,7.33,15.11,30.82,1.76,42.22-4.55,4.15-11.7,7.06-18.13,5.87-12.85-3.28-8.91-21.81,4.19-19.56h0Z"/>
    <path class="cls-1" d="M381.22,158.08c-.7-.01-1.68-.17-2.36-.05-2.47.22-4.8,1.5-6.63,3.16-7.98,6.91-11.4,18.59-11.2,28.72.18,12.83,5.78,22.14,17.83,25.05,11.62,2.82,19.96-2.38,20.35-14.67.13-9.6-3.81-19.81-7.75-28.05-2.45-5.13-3.52-12.96-10.23-14.15h0ZM381.08,150.45c9.8-1.4,21.74,3.38,27.29,11.67,5.32,8.06,7.57,17.48,7.37,26.97-.42,11.89-4.46,24.77-14.25,32.41-6.86,5.39-15.99,6.8-24.23,6.48-15.38-.72-26.53-9.93-29.31-25.14-2.35-13.68,2.52-27.55,10.43-38.28,5.26-7.41,13.61-12.82,22.71-14.13h0Z"/>
    <path class="cls-1" d="M442.09,57.12c-4.14,29.18-3.15,59.09-1.32,88.43,1.31,16.29,2.59,32.98,6.55,48.75.29,1.06.89,2.93,1.35,3.54.03.04,0-.03-.02-.06-.03-.06-.07-.13-.11-.18l.39.47c1.91,2.25,4.16,5.47,6.04,7.46,1.4,1.42,2.1,2.06,3.47,2.41,2.48-.04,5.02-1.49,7.19-2.71,4.47-2.48,10.1-.86,12.57,3.6,2.48,4.47.86,10.1-3.6,12.57-1.12.7-3.89,1.35-5.15,1.77-6.86,1.95-14.88,1.89-20.74-2.76-4.83-3.75-6.99-8.36-10.03-12.97-.3-.41-.84-1.29-1.13-1.69-2.85-4.51-3.07-9.46-3.91-14.36-1.93-15.15-2.78-29.95-3.93-45.05-1.96-29.56-4.55-60.37-7.6-89.94-.61-5.58,3.47-10.6,9.06-11.15,6.57-.75,12.19,5.4,10.93,11.86h0Z"/>
    <path class="cls-1" d="M494.6,147.77c1.04,16.4,3.29,32.89,5.77,49.13.78,4.58,1.48,9.09,2.72,13.49,2.32,4.37.52,10.98-4.52,13.33-4.94,2.47-10.95.47-13.42-4.47-.41-.95-.8-2.07-1.13-3.06-.16-.41-.66-2.86-.79-3.34-1.84-10.1-2.72-20.25-3.65-30.39-.94-11.54-1.93-23.07-2-34.68.43-11.29,16.54-11.31,17,0h0Z"/>
    <path class="cls-1" d="M491.6,115.77c.34,1.48.58,3.31,1.32,4.51,0,0,.1.01.1.01.1-.53-.2-1.11-.41-1.59-.37-.73-.86-1.43-1.43-2.01,3.91,3.91,3.91,10.24,0,14.14-4.59,4.73-12.83,3.51-15.85-2.33-.83-1.53-1.28-3.32-1.38-5.05-.13-2.79.24-5.1.67-7.69,1.88-9.46,15.19-9.34,16.99,0h0Z"/>
    <path class="cls-1" d="M541.9,150.92c-4.49,1.48-5.45,10.07-7.16,14.1-4.44,10.43-5.55,24.33,4.43,31.87,3.14,2.53,7.6,4.34,11.79,5.24,7.7,2.23,12.05-4.11,14.05-11.02,5.61-17.81.42-43.96-23.11-40.19h0ZM540.3,138.62c27.31-3.53,44.35,18.52,43.11,44.29-.49,17.71-13.81,37.07-33.49,34.53-18.31-2.43-33.04-12.86-36.87-31.65-1.85-9.67-.87-19.58,2.86-28.59,4.28-9.25,14.04-16.8,24.39-18.58h0Z"/>
    <path class="cls-1" d="M714.76,35.49c-11.72-8.83-34.76-10.22-44.24,3.29-3.76,5.68-3.53,13.49-1.79,20.1,1.84,7.77,6.4,14.32,12.34,19.72,17.09,14.72,39.87,20.77,58.77,33.34,14.97,9.62,26.63,24.56,27.73,42.93,1.54,32.64-26.32,56.15-58.03,54.16-11.03-.49-21.9-3.67-31.91-8.18-7.87-3.57-15.19-7.94-22.22-12.64-6.57-4.35-8.35-13.22-3.97-19.77,4.37-6.54,13.2-8.29,19.74-3.93.77.52,1.53,1.15,2.17,1.78,4.87,4.87,10.14,9.26,15.76,12.84,5.46,3.54,11.41,6.39,17.71,7.98,12.18,3.4,25.89,1.1,35.06-7.92,14.14-14.1,12.2-35.25-2.35-48.34-5.1-4.67-11.1-8.46-17.32-11.77-17.06-9.06-36.31-15.37-51.9-27.74-8.68-6.85-15.92-16.31-19.5-26.89-4.06-11.32-4.99-24.28.31-35.65,13.55-28.01,51.19-34.03,78.3-24.77,10.11,2.53,16.29,13.06,12.86,23.04-3.6,11.37-18.22,15.75-27.53,8.41h0Z"/>
    <path class="cls-1" d="M800.58,95.82c-.13,3.07.27,6.25.58,9.31,2.11,16.62,5.78,33.11,10.57,49.15,1.38,4.56,3.07,9.69,4.85,14.1,0,0,.92,2.11.92,2.11.13.31.26.52.43.76,7.7,11.57-8.65,22.87-16.7,11.53-.98-1.41-1.37-3.27-1.8-4.88,0,0-.23-.9-.23-.9-.09-.33-.09-.49-.14-.74-4.17-24.57-9.24-48.94-16.01-72.94-.4-1.38-1.11-4.2-1.43-5.6-1.24-5.16,1.94-10.35,7.1-11.59,6.07-1.56,12.17,3.46,11.86,9.7h0Z"/>
    <path class="cls-1" d="M792.62,64.37c-.88,2.15-.85,5.31.04,7.47,1.42,3.61-.35,7.68-3.95,9.1s-7.67-.32-9.09-3.92c-1.21-3.09-1.63-5.77-1.68-8.94-.02-2.95.51-6.01,1.66-8.92,3.75-8.56,16.21-3.58,13.03,5.21h0Z"/>
    <path class="cls-1" d="M820.52,73.87c-.09.09-.18.28-.2.43.1.04.38.15.49.19,6.62,2.04,26.52-3.96,32.18-8.15,6.92-4.48,13.75,5.28,7.13,10.24-.98.67-2.22,1.36-3.28,1.88-10.08,4.72-20.96,9.48-31.37,13.55-1.39.53-3.04.98-4.51,1.35-1.07.13-2.16.25-3.26.3-13.05-2.39-10.38-21.15,2.83-19.8h0Z"/>
    <path class="cls-1" d="M848.18,59.56c-.75,1.93-.92,4.08-1.3,6.16-1.06,7.22-1.58,14.56-1.8,21.87-.33,14.58.45,29.26,3.68,43.41,1.57,6.38,5.52,20.43,12.28,21.88,1.49,0,2.52-.6,4.23-1.77,10.59-7.28,21.58,7.4,11.6,15.51-1.92,1.48-4.26,1.84-6.49,2.54-2.84.7-5.87,1.07-8.82.77-22.4-2.41-25.14-34.39-27.3-51.79-1.83-20.26-2.71-40.38-2.39-60.7.09-1.32.4-3.15.55-4.4.64-4.83,5.07-8.23,9.9-7.6,6.63.75,9.97,8.91,5.86,14.1h0Z"/>
    <path class="cls-1" d="M881.1,106.92c9.53,1.16,21.81-7.02,26.58-15,1.94-3.28,2.83-7.32.64-10.51-1.98-2.43-5.94-1.91-8.94-.99-5.19,1.62-9.98,5.12-13.14,9.56-6.54,9.03-5.15,18.91.02,27.96,1.56,2.88,3.59,5.42,5.46,8.19,1.91,2.74,3.94,5.67,6.59,8.15,5.05,5.11,13.13,6.17,19.29,2.7,5.87-3.23,9.42-10.1,9.58-17.6.13-5.57,4.74-9.98,10.3-9.85,7.97.05,12.68,9.53,8,15.9-6.06,8.78-13.01,17.59-23.25,21.65-9.77,4.02-20.51,2.49-30.44-.32-5.03-1.52-9.93-3.86-13.93-7.32-9.58-8.47-14.54-22.32-12.34-34.94,1.38-8.38,6.38-16.33,12.3-21.97,7.3-6.88,16.27-12.67,26.68-12.63,6.04.13,11.5,3.44,13.83,9.43,5.85,15.74-9.63,30.82-21.99,38.04-4.97,2.81-10.18,4.9-16.23,5.31-4.4.39-8.28-2.85-8.68-7.25-.56-5.28,4.51-9.72,9.66-8.53h0Z"/>
    <path class="cls-1" d="M128.2,356.42c.3-1.24-.59-2.95-1.62-3.53-.21-.13-.03,0,.49-.17.24-.1.5-.2.63-.36-.37.58-.91,2.87-.92,4.61-.03,1.04.04,3.04.08,4.14,0,0,.35,9.21.35,9.21.42,8.98.9,18.79,1.41,27.72,1.04,23.39,3.4,48.06,3.92,71.54-.01,1.28-.08,2.89-.31,4.18-.78,5.9-6.83,9.8-12.54,8.17-5.75-1.55-8.64-7.88-6.75-12.9,1.56-11,1.33-22.26,1.47-33.41-.05-21.45-.96-43.13-2-64.59-.07-1.51-.54-10.22-.59-11.61-.28-6.79.63-14.48,6.59-19.24,6.51-5.19,15.91-2.65,20.82,2.9,3.55,3.8,5.6,8.97,5.43,14.23.24,4.87-3.64,9.06-8.57,8.87-5-.12-8.8-4.83-7.88-9.74h0Z"/>
    <path class="cls-1" d="M104.8,386.04c-.13-.06-.28-.1-.42-.12-.1,0-.03.02-.05.04-.03.02.06.06.14.09,5.47,1.6,11.54,1.39,17.39,1.55,6.57-.02,13.27-.19,19.78-.99.34-.04.6-.11.45,0,7.65-3.04,12.43,7.85,4.98,11.41-7.8,2.98-15.71,4.21-23.84,5.74-7.15,1.11-14.41,2.31-21.86,1.64-1.81-.2-3.7-.65-5.41-1.41-4.96-2.44-7-8.43-4.56-13.39,2.44-4.96,8.43-7,13.39-4.56h0Z"/>
    <path class="cls-1" d="M167.47,423.17c8.94,2.87,23.03.5,28.13-8.24,1.4-2.56,1.94-5.79,1.3-8.67-.63-2.48-2.36-3.92-4.87-4.66-5.88-1.67-13.45,1.34-17.15,6.38-7.93,10.12-4.29,29.15-.77,40.59,2.05,6.33,5.49,13.16,12.08,15.59,11.12,3.8,21.08-6.61,24.26-16.65,3.4-9.11,16.62-4.75,13.92,4.59-.35,1.05-.9,1.96-1.62,2.73-3.27,3.69-6.52,7.33-10.28,10.61-5.59,5-12.97,9.14-20.76,9.82-19.29,1.6-36.85-14.56-39.85-33.08-1.92-10.38-.82-20.9,3.71-30.54,6.76-14.61,23.44-26.49,40.05-21.3,2.81.95,5.62,2.51,7.91,4.84,8.58,8.76,5.58,24.27-3.11,31.84-9.65,8.6-24.28,11.44-36.71,8.73-8.77-2.56-5.02-15.24,3.75-12.58h0Z"/>
    <path class="cls-1" d="M257.47,407.26c-2.84-8.4-9.95-.12-11.98,4.67-3.73,7.71-3.13,17.48-1.43,25.38,1.76,7.8,3.14,13.6,7.3,19.6,0,0,.12.17.12.17,0,0,.06.09.06.09-.24.11-.54.09-.82.13-.56.01-1.44.24-1.8.58-.39.33-.3.59-.02.59.27,0,.7-.17,1.15-.47,10.92-8.67,14.28-40.25,9.79-52.93,0,0,9.29-.98,9.29-.98.43,10.7,2.02,21.41,5.22,31.58,1.06,3.32,2.37,6.52,3.9,9.4,1.29,2.29,3.13,5.03,5.22,6.11.82.39,1.2.29,1.71.15.27-.04,1.54-.47,1.94-.58,1.91-.75,5.42-2.3,5.39-4.31-.57-.99-1.45-1.97-2.7-2.95-3.36-2.73-3.87-7.67-1.14-11.03s7.67-3.87,11.03-1.14c3.42,3.38,6.11,8.35,6.43,13.47.58,9.35-7.75,15.49-15.96,17.08-1.23.23-2.07.44-3.44.59-5.66.84-11.24-3.1-14.07-7.44-3.51-5.12-5.5-11.02-7.09-16.74-3-10.99-4.45-22.25-5.77-33.48-.53-6.01,8.12-7.22,9.25-1.28-.19,7.17-1.17,13.71-1.91,20.66-1.05,9.54-2.64,20.22-4.39,29.76-1.02,4.89-1.79,9.98-5.21,14.17-2.95,3.82-9.05,5.17-13.65,3.01-4.76-2.07-9.05-5.43-12.07-9.61-9.8-13.39-6.96-30.72-1-44.73,2.94-6.99,5.81-13.53,11.03-19.44,3.1-3.41,7.2-6.31,12.2-7.02,5.27-.84,10.69,1.1,15.09,3.54,0,0,2.42,1.3,2.42,1.3,4.86,2.6,6.69,8.65,4.09,13.51-4.01,7.64-15.45,6.67-18.2-1.38h0Z"/>
    <path class="cls-1" d="M297.35,384.82c-.3-.1-.63-.22-.95-.15-.07.02.05.04.07.07.1.08.4.11.52.15,5.05.61,10.28-.01,15.51-.45,5.79-.59,11.7-1.38,17.46-2.36,0,0,2.26-.41,2.26-.41,0,0,.43-.08.43-.08,3.2-.59,6.28,1.53,6.87,4.74.51,2.77-1.01,5.44-3.5,6.5-1.01.43-1.82.75-2.68,1.08-5.81,2.24-11.67,4.26-17.64,6.11-6.39,1.87-13.04,3.98-19.91,4.27-1.92.05-3.91-.2-5.74-.84-5.14-2.02-7.67-7.82-5.65-12.96,2.02-5.14,7.82-7.67,12.96-5.65h0Z"/>
    <path class="cls-1" d="M328,370.53c-7.55,15.89-10.04,45.61-3.24,61.98,1.68,4,4.84,9.36,9.11,9.48,6.6-2.07,13.64,1.06,15.55,7.94,2.86,10.34-8.79,18.72-17.65,12.89-2.14-1.49-5.15-3.19-7.13-4.76-3.21-2.54-5.79-5.85-7.6-9.45-2.21-4.35-3.31-8.54-4.16-12.57-2.94-15.7-2.66-30.55-2.78-46.17,0-3.72-.02-13.66-.03-17.29,0-2.24-.03-4.74.11-7.29.23-5.28,4.69-9.37,9.97-9.14,7.09.18,11.5,8.37,7.84,14.39h0Z"/>
    <path class="cls-1" d="M380.95,450.77c.15.46.94,3.02,1.46,2.4.04-.21.05-.45,0-.66-.06-.32-.26-1.38-1.44-2.81,3.7,4.1,3.36,10.43-.74,14.12-5.61,5.14-14.72,2.06-16.27-4.91-.44-1.5-.41-3.69-.17-5.01.22-1.41.56-2.71.97-3.98,2.77-8.08,14.31-7.35,16.19.85h0Z"/>
    <path class="cls-1" d="M429.4,464.29c-.85-6.03-.89-12.31-.86-18.33.52-28.37,3.28-56.46,7.1-84.54,1.96-11.61,2.23-24.47,9.57-34.32,0,0,1.62-1.94,1.62-1.94,1.31-1.61,3.92-1.48,5.07.25,1.88,1.3,3.58,2.99,5.14,4.62,16.58,17.94,58.49,83.2,60.54,106.09.47,4.29-2.63,8.14-6.92,8.61s-8.14-2.63-8.61-6.92c-.28-4.66-1.78-9.1-3.37-13.5-9.06-23.63-21.56-46.2-34.73-67.84-4.36-6.94-8.79-13.84-13.97-20.13-.77-.86-1.92-2.23-2.81-2.96,0,0-.48-.43-.49-.43,0,0,6.69-1.7,6.69-1.7l.28.52c.19.85.27,1.75.36,2.71.82,9.58-.87,19.1-1.33,28.71-1.45,22.11-2.6,44.4-3.4,66.52-.25,10.6-.88,21.16-.11,31.67,1.54,13.39-17.46,16.21-19.79,2.89h0Z"/>
    <path class="cls-1" d="M444.78,385.12c-.06.19-.1.45-.06.67,0,0,.12.06.12.06,2.49,1.4,5.6,1.46,8.51,1.51,7.49-.16,14.99-2.14,21.94-4.96,2.85-1.27,5.8-2.53,8.08-4.67,0,0,.1-.1.1-.1-.07-.12-.16-.25-.27-.33,11.79-6.08,21.15,10.4,9.86,17.4,0,0-1.48.43-1.48.43l-.73.2-.36.09-.24.02-1.9.22c-7.13.53-14.31,1.24-21.27,2.57-7.71,1.2-15.01,3.83-22.59,6.07-6.74,2.11-12.84-4.71-11.43-11.31,1.07-5.42,6.32-8.95,11.74-7.88h0Z"/>
    <path class="cls-1" d="M516.56,314.98c-.3-.1-.62-.14-.93-.13-.12,0-.06,0-.04.02.03,0,.15.05.18.06,1.24.3,2.42.25,3.83.29,5.64,0,11.64-.45,17.2-1.4.09-.01.2-.01.3-.01,0,0,.03,0,0,0-.39.19-.74.47-1.01.8,2.95-2.66,7.5-2.42,10.15.53,3.56,4.01,1.67,9.74-3.01,11.84-4.56,2.24-9.48,3.61-14.31,4.98-4.5,1.16-9.19,2.41-13.98,2.6-7.29.54-12.97-5.77-10.88-12.95,1.62-5.28,7.21-8.25,12.49-6.63h0Z"/>
    <path class="cls-1" d="M536.56,323.38c.82,17.19,3.84,34.3,7.07,51.19,2.46,12.68,5.12,25.36,8.35,37.86.93,3.52,1.83,7.04,3.05,10.43,0,0,.19.4.19.4l.04.1c.02.06-.02-.09-.04-.15-.12-.4-.28-.78-.51-1.13,2.42,4.07,1.07,9.33-3,11.74-4.92,2.98-11.42.16-12.72-5.41-.79-3.67-1.28-9.46-1.78-13.23-3.74-30.16-6.98-60.25-14.46-89.79-.99-3.74,1.24-7.58,4.99-8.57,4.29-1.19,8.71,2.12,8.8,6.56h0Z"/>
    <path class="cls-1" d="M531.54,427.15c4.13-1.3,10.91-4.37,16-5.06,6.13-1.13,12.49-.9,18.49.27,8.38,1.73,7.33,13.72-1.15,14.04-6.72-.1-12.97,1.45-18.66,5.04-1.97,1.14-3.75,2.5-7.15,4.24-5.04,3.02-11.69,1.25-14.36-4.04-3.05-5.77.46-13.15,6.82-14.48h0Z"/>
    <path class="cls-1" d="M577.15,312.1c2.92,31.95,8.07,63.62,14.86,94.95,1.96,9.18,4.21,18.32,6.32,27.5.4,1.43.62,3.44.86,4.91.65,4.32-2.32,8.35-6.64,9.01-5.29.88-9.94-4-9-9.23.09-.91.22-2.05.17-2.98-.18-9.12-1.35-18.21-2.59-27.26-3.08-20.86-7.31-41.58-12.96-61.91-2.89-10.02-5.84-20.16-10.29-29.6-2.48-5.05-.41-11.15,4.64-13.64,6.24-3.23,14.16,1.27,14.64,8.24h0Z"/>
    <path class="cls-1" d="M570.96,319.36c3.88-3.56,9.34-4.76,14.28-5.94,14.57-2.79,32.88-1.89,42.56,11.09,4.97,7.05,5.51,16.13,3.39,24.27-2.61,10.15-10.71,18.1-20.11,22.14-6.83,2.97-14.08,4.82-21.55,4.83-1.2-.07-2.28-.12-3.4-.81-1.75-1.17-1.97-3.41-1.35-5.08.95-2.78,3.76-4.67,6.61-4.85,7.48-.25,13.27,5.91,17.98,10.92,9.95,11.23,20.24,23.32,33.27,30.69,1.65.91,3.31,1.55,5.07,2.04,1.57.35,2.96.3,3.72-.04,11.05-4.52,18.16,11,7.46,16.4-2.64,1.37-5.65.65-8.33.1-11.11-2.27-18.08-11.24-24.76-19.19-5.73-7.19-10.87-14.49-16.08-21.74-4.4-5.95-10.18-15.36-18.09-15.74-1.56.08-3.13,1.03-3.55,2.5-.11.32-.11.64-.07.81.05.19.08.16.07.12,4.74.21,9.75-1.88,13.96-4.11,9.14-5.18,15.34-12.51,17.11-21.83,1.15-6.2.7-13.44-4.89-17.33-9.35-6.6-25.8-6.92-36.94-5.08-.66.07-1.47.45-1.98.43,0,0-2.98-.4-2.98-.4-1.98-.19-2.85-2.86-1.4-4.19h0Z"/>
    <path class="cls-1" d="M655.45,300.72c4.93-.28,10.51-1.41,15.22-2.6-.82.58-1.84,1.61-2.34,2.61,2.36-4.17,7.66-5.63,11.83-3.27,4.98,2.74,5.83,9.68,1.9,13.7-2.22,2.34-5.17,3.5-7.88,4.6-5.58,2.07-10.65,3.72-16.52,4.84-5.75,1.4-11.63-2.29-12.55-8.2-1.07-6.19,4.07-11.97,10.34-11.68h0Z"/>
    <path class="cls-1" d="M672.81,307.31c1.94,17.19,5.66,34.07,9.86,50.83,4.2,15.99,8.35,32.18,14.62,47.5,0,0,.23.36.23.36l.06.09c-.08-.4-.33-.98-.57-1.39,2.82,4.75,1.25,10.88-3.5,13.7-4.75,2.82-10.88,1.25-13.7-3.5-.43-.87-.88-1.88-1.08-2.81-.39-1.69-.68-4.69-.89-6.45-2.56-23.74-5.75-47.46-10.39-70.86-1.74-8.46-3.6-16.91-6.05-25.2-2.07-8.21,10.1-10.75,11.41-2.29h0Z"/>
    <path class="cls-1" d="M676.07,411.14c5.49-1.07,10.19-2.17,15.45-3.45,5.68-1.25,10.96-2.96,17.04-2.68,0,0,1.4.07,1.4.07,3.46.17,6.12,3.11,5.96,6.56-.17,3.46-3.11,6.12-6.56,5.96-1.13-.05-2.2-.42-3.09-.99-.7-.49-2.43-.53-3.53-.4-6.98.91-14.29,4.44-19.31,9.4-3.2,3.57-8.69,3.87-12.25.67-5.62-5.05-2.51-14.28,4.89-15.13h0Z"/>
    <path class="cls-1" d="M828.5,268.5c-17.41,7.48-35.35,12.34-53.57,17.25-.01,0,7.75-12.68,7.75-12.68,4.94,21.04,8.75,43.4,12.72,64.6,3.31,18.23,6.8,37.93,9.76,56.28.45,2.83.91,5.85,1.19,8.74.62,7.64-10.27,9.33-11.95,1.79-1.66-9.06-5.03-22.76-7.12-31.89-6.19-26.11-12.71-52.74-19.52-78.74-1.01-3.76-2.1-7.81-3.17-11.54,0,0-1.09-3.55-1.09-3.55-1.61-5.24,1.33-10.78,6.57-12.39,17.92-2.7,36.47-4.72,53.92-9.69,7.61-2.19,11.63,8.4,4.51,11.81h0Z"/>
    <path class="cls-1" d="M782.51,324.94c17.93-4.7,35.91-10.15,53.43-16.12,2.43-.87,4.86-1.78,7.15-2.89,3.82-1.71,8.31,0,10.02,3.82,1.71,3.82,0,8.31-3.82,10.02-2.89,1.24-6.1,2.09-9.09,2.91-13.2,3.4-26.45,6.19-39.78,8.91-4.64.89-11.57,2.33-16.2,3.01-6.31.8-7.91-8.23-1.71-9.65h0Z"/>
    <path class="cls-1" d="M861.9,325.47c.93,13.34,5.99,45.34,20.39,49.82,2.15.59,4.46.28,6.54-.43,13.74-5.47,12.13-31.82,10.94-44.31-.61-5.72-1.49-11.38-2.55-17.17l7.22-.43c2.62,8.04,4.79,16.19,6.86,24.37,1.71,5.43,1.45,11.27,2.36,16.85.5,2.81,1.55,5.42,2.82,7.86,2.03,3.81,5.87,9.44,10.23,9.16,8.95-1.19,11.15,11.63,2.27,13.47-2.72.53-4.84-.88-6.84-2.4-3.46-2.41-5.62-5.09-7.77-8.4-2.59-4.05-4.64-8.34-6.7-12.52-2.04-4.18-4.79-7.98-6.98-12.11-4.78-9.49-6.29-26.06-3.5-36.34,0-4.63,6.67-5.05,7.22-.43,1.04,11.58,2.38,23.42,2.01,35.38-.34,13.65-3.77,32.56-20.15,34.75-22.92,2.88-33.61-37.75-38.7-54.61-1.11-3.88,1.14-7.93,5.02-9.04,4.41-1.32,9.05,1.96,9.3,6.54h0Z"/>
    <path class="cls-1" d="M950.64,309.17c5.12,19.03,9.11,37.96,11.47,57.49,1.3,13.6,3.4,34.71-7.5,45.12-2.14,1.97-4.81,3.4-7.63,4.11-.36.12-2.56.65-2.97.79-12.93,3.1-28.77,6.65-40.35-2.63-3.55-2.86-5.74-7.04-7.42-11.22-2.06-4.74.11-10.26,4.85-12.33,6.67-3.02,14.26,2.95,12.98,10.09-.02.24-.17.77-.13,1.02.07,6,9.62,7.35,14.68,7.43,5.09,0,10.4-.82,15.4-2.05,5.59-.91,7.77-6.79,8.57-12.12,3.12-22.3-8.83-58.63-19.38-78.48-2.63-4.55-1.07-10.37,3.48-13,5.28-3.16,12.42-.19,13.95,5.76h0Z"/>
    <path class="cls-1" d="M929.4,278.2c4.79,2.73,6.73,7.21,6.57,12.6-.15,8.68-12.6,8.92-13.09.25-.05-.79.25-2.03.39-2.66.05-.22.12-.12.27,0,.16.13.23.05.05-.24-.18-.29-.7-.85-1.14-1.28-4.66-4.8,1.31-12.15,6.94-8.66h0Z"/>
    <path class="cls-1" d="M979.56,299.63c.75,3.41,2.33,8.69,3.29,12.12,3.41,11.47,6.87,23.05,10.97,34.28,0,0,.5,1.25.5,1.25.11.28.11.24.13.3.02.05.03.1.04.15l.47,4.7c.82,9.91-12.29,13.69-16.94,5.05-2.38-4.48-3.96-9.56-5.68-14.27-4.23-12.35-8.35-24.86-11.86-37.44,0,0-.49-2.01-.49-2.01-1.31-5.37,1.98-10.78,7.35-12.08,5.58-1.38,11.19,2.3,12.22,7.94h0Z"/>
    <path class="cls-1" d="M968.5,270.02c2.51,3.1,4,6.16,4.14,10.3.19,5.66-4.5,10.82-10.37,7.84-3.2-1.8-4.34-5.85-2.55-9.06-.26.49-.29.94-.26,1.07.02.14.05.02,0-.21-.04-.23-.16-.57-.31-.91-.08-.17-.16-.33-.24-.48-.06-.11-.19-.3-.06-.17-5.33-6.57,3.88-14.58,9.65-8.38h0Z"/>
    <path class="cls-1" d="M992.1,285.96c2.06.32,4.61-.15,6.79-.45,5.97-1.05,12.35-2.85,17.87-5.31,2.34-1.04,4.62-2.22,6.53-3.85,7.7-6.9,16.68,3.49,8.85,10.18-8.42,8.21-27.45,15.22-39.15,16.01-1.42.1-2.97-.04-4.41-.25-7.75-1.17-8.76-11.87-1.49-14.52,0,0,5-1.8,5-1.8h0Z"/>
    <path class="cls-1" d="M1016.95,260.89c-2.88,21.07,1.6,64.09,11.36,82.83,1.3,2.34,2.57,4.53,4.48,5.94.43.27.75.35.73.23,0-.13-.45-.37-.76-.43-.32-.09-.37-.15-.24-.4,6.16-10.49,21.46-2.28,16.15,8.64-1.35,2.93-4.67,4.21-7.3,5.55-8.47,4.55-16.9,1.05-21.6-6.76-7.27-12.69-9.61-27.57-12.7-41.37-2.22-11.21-4.12-22.66-5.85-33.95-.96-7.06-2.33-14.39-2.66-21.57-.63-5.53,3.48-10.61,9.13-10.72,6.24-.26,11.07,6.05,9.26,12h0Z"/>
    <path class="cls-1" d="M1075.48,292.93c-.67-2.26-3.14-2.45-5.56-2.18-13.12,2.82-15.48,19.71-13.82,31.19,1.01,6.89,4.95,27.34,14.4,25.52,6.08-2.09,9.49-8.97,11.75-14.96,3.11-8.81,3.61-18.86,1.32-27.86-.29-1.05-.66-2.09-1.04-2.76-.16-.32-.44-.51-.16-.26.14.12.69.43,1.4.35.7-.08,1.08-.41,1.18-.5.21-.21.02.02-.04.35-1.06,5.57,1.49,11.37,4.91,15.86,2.77,3.54,6.24,6.14,10.21,8.4,2.41,1.36,9.16,4.8,11.2,2.83,1-1.64,1.04-4.18.89-6.27-.31-4.07-1.43-8.54-3.02-12.8-2.87-8.67,9.42-13.25,12.92-4.8,2.02,8.46,3.68,18.48.1,27.1-3.6,8.23-12.28,9.4-19.72,5.91-7.66-3.62-14.38-8.63-19.18-15.61-3.93-5.84-6.42-13.14-5.38-20.37.51-2.74,1.56-6.12,5.17-6.7,8.32-.63,7.91,18.18,7.51,23.59-1,10.56-3.75,21.02-10.89,29.36-11.54,12.16-22.17,2.49-26.95-10.03-5.68-14.86-8.96-33.04,0-47.37,5.78-9.68,20.6-16.46,30.73-8.03,12,10.65-3.44,20.13-7.93,10.07h0Z"/>
  </g>
</svg>